<mxfile host="app.diagrams.net" modified="2023-04-23T20:43:54.683Z" agent="Mozilla/5.0 (Windows NT 10.0; Win64; x64) AppleWebKit/537.36 (KHTML, like Gecko) Chrome/111.0.0.0 Safari/537.36 OPR/97.0.0.0" etag="I8EIRt0gVPKhy2ttob1H" version="21.2.1" type="google">
  <diagram name="PÃ¡gina-1" id="UbGfhSLhrlrldBNFHbWR">
    <mxGraphModel grid="1" page="1" gridSize="10" guides="1" tooltips="1" connect="1" arrows="1" fold="1" pageScale="1" pageWidth="827" pageHeight="1169" math="0" shadow="0">
      <root>
        <mxCell id="0" />
        <mxCell id="1" parent="0" />
        <mxCell id="6DogbckgimtxpG4DwGVf-1" value="" style="rounded=1;whiteSpace=wrap;html=1;" vertex="1" parent="1">
          <mxGeometry x="420" y="205" width="120" height="20" as="geometry" />
        </mxCell>
        <mxCell id="6DogbckgimtxpG4DwGVf-3" value="Username:" style="text;html=1;strokeColor=none;fillColor=none;align=center;verticalAlign=middle;whiteSpace=wrap;rounded=0;" vertex="1" parent="1">
          <mxGeometry x="270" y="200" width="60" height="30" as="geometry" />
        </mxCell>
        <mxCell id="6DogbckgimtxpG4DwGVf-5" value="REGISTER" style="rounded=0;whiteSpace=wrap;html=1;fillColor=#dae8fc;strokeColor=#6c8ebf;" vertex="1" parent="1">
          <mxGeometry x="420" y="270" width="120" height="40" as="geometry" />
        </mxCell>
        <mxCell id="6DogbckgimtxpG4DwGVf-6" value="" style="endArrow=none;html=1;rounded=0;" edge="1" parent="1">
          <mxGeometry width="50" height="50" relative="1" as="geometry">
            <mxPoint x="160" y="360" as="sourcePoint" />
            <mxPoint x="160" y="80" as="targetPoint" />
          </mxGeometry>
        </mxCell>
        <mxCell id="6DogbckgimtxpG4DwGVf-7" value="" style="endArrow=none;html=1;rounded=0;" edge="1" parent="1">
          <mxGeometry width="50" height="50" relative="1" as="geometry">
            <mxPoint x="160" y="360" as="sourcePoint" />
            <mxPoint x="640" y="360" as="targetPoint" />
          </mxGeometry>
        </mxCell>
        <mxCell id="6DogbckgimtxpG4DwGVf-8" value="" style="endArrow=none;html=1;rounded=0;" edge="1" parent="1">
          <mxGeometry width="50" height="50" relative="1" as="geometry">
            <mxPoint x="640" y="360" as="sourcePoint" />
            <mxPoint x="640" y="80" as="targetPoint" />
          </mxGeometry>
        </mxCell>
        <mxCell id="6DogbckgimtxpG4DwGVf-9" value="" style="endArrow=none;html=1;rounded=0;" edge="1" parent="1">
          <mxGeometry width="50" height="50" relative="1" as="geometry">
            <mxPoint x="160" y="80" as="sourcePoint" />
            <mxPoint x="640" y="80" as="targetPoint" />
          </mxGeometry>
        </mxCell>
        <mxCell id="6DogbckgimtxpG4DwGVf-10" value="" style="shape=image;imageAspect=0;aspect=fixed;verticalLabelPosition=bottom;verticalAlign=top;image=data:image/png,iVBORw0KGgoAAAANSUhEUgAABLAAAASwCAYAAADrIbPPAAAABGdBTUEAALGPC/xhBQAAACBjSFJNAAB6JgAAgIQAAPoAAACA6AAAdTAAAOpgAAA6mAAAF3CculE8AAAABmJLR0QA/wD/AP+gvaeTAACAAElEQVR42uzdd7xdZZ0v/u+z9j4lPaGG0ANItyBWRIrYxR4LEEjBODqjjo7O6BTNlDt35v6m3Dve0TsRCNIsceyKiiD2riiCSu8dEiDJqXs9vz8OKCCQU/Y+Z6+93+/XixdS1LW+69mrfNb3eVYKAKAjLHtnnrXDYPRHRAwMRF9RxOwH/lFPUcTciIiUomhELHjwv5PKWPSQ/4kFKUXxwH+el1PUf/fv5Zifc9Qe+v+XUvSV8bv/j4f+/UWPsnmzU46+h/6NnKIWOeY/yr87NyJ6xrnbPQ/8+1M1O+Lh2zcFwxGxpQn/O0MRsXUC//7miBh5xN/LKWJT/OHffKz/7ftzjtGH/o0iosw57n2U4zyYUwz87n8zYqTIsfnBvy5TbEpl5Af+cmsuYigiohj737//d/+9HPfmHGVERL0eA7VaDEZE3HdfNM49N93nlw0AREQkJQCAqXnb23Lf6GjMbjSif3Q0ZhVF9MVYINJTpphbi6iVZczPRaQix8IHAoQHQ54FUUYRDwRGRcScnKI3Hgh8co7+SDErRfTmiDkP/HfmRfwuXJoTEb2OAl1w13pf5Gg88FeDEWPhWYrYksdCw5E0FuJFTrExIiLK2JJTDKcUw1E+ECoWY/8sjYVtI2WK4fTAP8sP/LMHgriR0SKGi9HYUhSRe3rGgsAPfzg2RaTsgADAdN8KAEAXWL48z6nVYl5RxOxaLeaPpuhLOealMuamFH0RsSCnmBUR/TnHwiKivxwLkeY/8M/n5bFOn74Y62CaFRH9EbHQ9RS6ThkR9+bfh2YDETH4wH8eKSM2pYhGjrj3wfAspxhIKQYj4v6UY7RMsakY+/N9qYzhlGJLozH27+Qc98+aFQMf+lDarNQAMMYNNwBtbdk786x598aiiOiv1WJWI8Wi1IhFOcWiIqI/p5iVciwqIxalFItyfuDvR8yKFIsix6KI2D50KQHV9GC32WCk2Bh57D/niI0pPfCfc2wsIjbmh/x1evDfq8XGohwLxhqN2FiWcc+ZZ6ZBZQWgagRYALTcgyFUrRaLHhpApRSLHhk+pYhFDwmedozfT5UDoHkGI2LjA6HYxscIxDY+Mgyr5djYaMTGOXPi7g9+MA0pIwDTRYAFwIQsW5Z7582LHYoidoiIncsUO6WIHaIc++soYsfIsWOO2D5FLIqxP3Q/AXTeg8RAjrgvxhbl3xRjgdimB0KvjVGM/Tnn2JhSbCrL2FivjwVgp58eG60lBsAErzsAdLsVK3J/9MfinkYsyTkW5xxLImLnSLE4xrqgdnjgzzvF2JpPADBV90Ye6wLLMRZ2pRSbcoqNUcY9EXFnLuLuVMbdRRF3j4zE3b29cfe6dWlE6QC6jwALoIM90C21W0qxW0qxaxmxcxGxJKdYHDmWRIpdIsfiiNhOtQCoyBPMfZHj7oi4M3LcHSnuzhH3pBx3pxR35xR3Rxl3phR3FkXcuWRJ3Ll2bRpVOICqn/4BqKy3vCUvGhmJpTnHkpRil5xjaRSxJOXYJUcsjYg9I6KmUgB0ucGIuCUibn1gva+NUcYtUcSteawL7JZaxK2NRmy8//64fcOG1FAygPYiwAJoYyefnLev12PvqMXSFLF3zrG0iFiaI/aOiN3D2lIA0GwjKeKOHHFz5LgtIm6KiNtTihsj4vaIuKlej9v+3/9LdygVwPQRYAHMsJUr846pJ/aPMvZPOfaLFPvFWEC1NCIWqBAAtKXhiLgtR9yUIm5LETfnHLfmFDcXEbemFLfU63HLhz+cNioVwNQJsACmwZo1uWdkJPYrijg4itg/cuwfEU944I+FKgQAHfvANZAjbokct0Z6WFfXLRFx/UhPXLd0cdy6dm0qVQvgcc+nADTL2rW5fsMNsUdKcXAUcVBEeXDkdFCKOChHzFIhAOBRjETEXRFxS6S4Jsp8TUrFNWWKa6IR19TrcaOvLwLdToAFMAnLluXanO1iab0Rh0bEgTmXh0RKB0XEAWFdKgCguRoRcXNEXB8pXxdlXB9RXJ9SXF8Ucc2SJXG9Ly0CnU6ABbANq1blJRFxUEpxcM7lQSmlgyPiKRExW3UAgDYwGhE3pBTXlA90b0XENSnFNffeG5dv2JAGlAioOgEWQESsXZuLG26IvWq1OKgs46CI8qCIdEhEHBiCKgCgukYj4vqc46qIfFVRFJdFxK+LIn61bl26S3mAqhBgAV3nMTqqnhQRc1UHAOgiGyPi8pzzZSkVl+ccl9Xrcdm6delWpQHajQAL6FgrVuSF9XoclnMcHlE+KSIdGGMdVf2qAwDwmG7POS5LKV+ec3FJUcSPd9stLrfOFjCTBFhAR1i1Ks+LiCelFE+NKJ8akZ4aYwuqF6oDADBlIxHxy5zzdyOKn9Zq8dOPfCQuj0hZaYDpIMACKmf58jynXo/DU4qnplQ+NSIdHhH7OacBAEyrjRHx44j845SKH5dl/PiMM9ItygK0goc9oO2tXJl3LIo4IqJ8bkQ6IiIOi4i6ygAAtJ0bI/LFORffTCm+efrp6SolAZpBgAW0nVWr8pKU4oicy+ek9LvAyvkKAKB6bouIb0ek76YU3znttPiZaYfAZHggBGbcqafmA3OO50WUR6SUjsw5dlUVAICOdGvO+eKUim/WavHNdevSb5QEGA8BFjDtTj45b9/bG8flXL4gIr0gInZTFQCArnRrRD4/peL8oogL1q1L9yoJ8GgEWEDLLVuWawsWxJNzjuNSysflHEeHNawAAHi4RkRcklL+YkTxBdMNgYcSYAEtsWJF3q9ejxfknF8QEcdExDxVAQBgAq5PKZ+fc/Hl4eG46Oyz0xYlge4lwAKaYu3aXNxwQzwjpfIVOadXpBQHqAoAAE0ymHN8MyJ9aXQ0Pn3WWelmJYHuIsACJm3FitxfFPGciPL4okivsfg6AADT5PKU8oaiKM5ety5drRzQ+QRYwIS85S150fBwHBdRHh+RXhER81UFAIAZdHlKeUPOxTmnn56uUg7oTAIsYJtWrMiLa7V4bUR+ZUQcFRZgBwCg/eSI+FFE+lSjEZ8688x0nZJA5xBgAY9qxYq8sF6PV+Wc3xgRx0ZETVUAAKiQn6SUPj46GueeeWa6TTmg2gRYwO+sWJH7a7V4fkS5LCK9JiJmqwoAABVXphQXlWU6u16PT61bl7YqCVSPAAu63LJluTZvXhyTUnlyRHplRMxTFQAAOtSmnPMnI4qzzzgjvhuRspJANQiwoEutXp2PiCiXR6TXRsT2KgIAQJf5dUT6aM5x9hlnpFuUA9qbAAu6yKmn5p1zjuU559UpxQEqAgAA0YiICyLSR2fPjs988INpSEmg/QiwoMOtXZuLG24YPTal2poHviLYoyoAAPCoNuUcZ5Vl8e++YgjtRYAFHWrlyrx7UZQnRMRbImJPFQEAgHErU0oX5Vyuu+++2qc3bEgNJYGZJcCCDvK2t+W+rVsbL0+pWJNzfp7fOAAATNlVEXHayEhx2llnpbuVA2aGh1voAKtW5SVFUa7JOf4kLMgOAACtMBSRPp9z+vczzkjfVw6YXgIsqKycVq8ePTai9raI/LKIqKkJAABMy7349yPiP3bfvfaptWvTqHpA6wmwoGJWrMj9RdF4XVGkd+cch6oIAADMmOsi4n8PDxennX122qIc0DoCLKiIVavy0pTKNRHxpojYTkUAAKBt3BURp9dqxf9Zty7dqhzQfAIsaHOnnjry/Jxrb4vIL42IQkUAAKBtbY2IM1Iq/u2009K1ygHNI8CCNrR2bS5uvLHx0sjx1xHp6SoCAACVUuZIX845/cP69emHygFTJ8CCNrJsWZ61YG65Iqd4d0QsVREAAKi4nC6IovHPp5/ec6FiwOQJsKANrFqV56VUroocfx4RS1QEAAA6S478vYj8gTPO6Pm6asDECbBgBp16at65LMu3RMQ7ImKhigAAQKfL3805v3/9+p6L1ALGT4AFM2DVqrx/RPmeiFgeEb0qAgAA3SXndEFK6QNnnJG+rxqwbQIsmEannpr3LsvyvRGxOiJqKgIAAF3/WP71lNJfnX56+pFawOP8UpQAWm/16rxnzuVfRsSqiKirCAAA8IjH869HpPedcUb6iVrAo/xClABaZ/XqvGdE+dc5xykR0aMiAADA48gR6dNlmd535pnpSuWA3xNgQQssX5536ukp3xVji7P3qwgAADABIxGxfmSk+Juzz053KAcIsKCpVq7MO6ZU/llEvD0iZqkIAAAwBZsj4l/LsvinM89Mg8pBNxNgQRO85S150eBg+ZcpxVsjYraKAAAATXRdSvl9p59e+0REyspBNxJgwRSsWZN7RkfLlRHxDxGxo4oAAACtk3+cUu3dp5+evqUWdBsBFkzS6tWjx0ekf8859lENAABgGh/lv1iW6V0WeqerRr0SwMSsXp2PKMvGv6SUnqkaAADADBnJOf7PrFnF337oQ2mzctDpBFgwTqtX5z1zLv8+Ik7y2wEAANrErRH5vWecUT9LKehkHsJhG1avztvlXP55RPxpRPSpCAAA0IaP99/IOf3J+vXpcrWgI0e4EsCje2CB9rdH5L+OiIUqAgAAtLmhlPK/1Gr1f1y3Lm1VDjqJAAsexerVI8/NufjPiHyIagAAABVzc0T8pWmFdBIBFjzEmjV5l9HRxj+Hda4AAIDq+2JR1N5+2mnpWqWg6jygQzxsuuAHImKeigAAAB1iIKX0j7Va8c/r1qUR5aCqBFh0PdMFAQCALnj8vzSiseqMM3p/ohZUcgQrAd3KdEEAAKDLjEbkf50zp/6BD34wDSkHVeKhna6zdm2u33BD+faIvDZMFwQAALpMzumyiMbq9et7f6gaVIUAi66yYsXQoUVROy0inq4aAABAFysj4rSRkdq7zj47bVEO2p0Ai66wZk3uaTTKd+Wc/y4ielUEAAAgIiKuicinnnFGzzeUgnYmwKLjrVw58uyU4iMR6SDVAAAA+AM5Ij7S31/7sw99KG1WDtqRAIuO9da35rkDA43/mVK8NSIKFQEAAHhc1+Scl69f3/M9paDdCLDoSCtXjrwwpfRfEbGnagAAAIxbIyL/S71e/5t169KIctAuBFh0lBUr8sIiNf45It5kfAMAAExSjh+lWu3E009PVykG7cADPh1j5crRV6SI/4qInVUDAABgyu6LFG8944z6uUrBTBNgUXnLluVZ8+aO/lNEertqAAAANFmKDX2DtTd/+Ly0UTGYuWEIFbZ69fDTc5nOiUj7qQYAAEBr5IgbiiIvP/30nm+pBjNBgEUlrV2b6zdeV/5ZTvnvI6JHRQAAAFquEckC78wMARaVs2pV3j9y4+yIeJpqAAAATLvvFbXa6087Ld2kFEyXQgmoklWrRk+O3PhJCK8AAABmyrPLRuPnq1aNvEApmC46sKiE5cvzTvV647QUcbxqAAAAtIUcKf+vPfao/+XatalUDlpJgEXbW71i5EU5pbMiYkfVAAAAaDM5vtQ3XFvuK4W0kgCLtrVsWa7Nmzf6N5HT34TprgAAAG1r7CuF5bLTT+/9kWrQCgIs2tLy5Xmnnnrj3Ig4TjUAAAAqYSjl9Benn1n7P0pBswmwaDurVo0cEznOi4jFqgEAAFAxKZ9dr/f80bp1aati0LRhpQS0i2XLcm3enNEPRIq/ClMGAQAAKitFXJJT4zVnnNF/jWrQpDEFM2/58rxTT2307EjhM6wAAACd4Z5I8dozzuj5hlIwVbpcmHGnrhg5uqc2eonwCgAAoKNsFzm+tmrV8B8rBVOlA4sZlNOqVaN/HTk+EBE19QAAAOhMKeLf79tcf8+GDamhGkxyDMH0e+tb89zBraNnRorXqAYAAEBX+Gq9p/76devSvUrBRAmwmHarVg0ujVz7XEQcohoAAABdJMUVtdHG8R85q/8KxWAirIHFtFq9euS5kWvfD+EVAABA98nxhEat9r1TV4wcrRhMhACLabNq1fCaXMbXI2In1QAAAOha25cpvrp6xfAqpWC8TCGk5VasyP1FND4cKa9QDQAAAH4nx/93xpn1v4hIWTF4PAIsWmrVqrwk59H/ThHPVA0AAAD+QM7n1nt7Vq5bl0YUg8ciwKJlVq4cPiwiPpMi7aEaAAAAPKYUFw4N1V997rnpPsXg0VgDi5ZYvWL0DSnS94RXAAAAbFOO5/X1jl64fHm2ZjKPSoBF061eMfyOnPK5EdGnGgAAAIzT4T31xvdXrBjcTyl4JFMIaZply3Jt3rzGf0TOb1UNAAAAJun2HPkl69f3/kwpeJAAi6ZYvjzP6amPfjwiXqYaAAAATNHmHPHa9et7vqoURJhCSBOsWZN36ekZ/WYIrwAAAGiOuSni86tXjL5BKYgQYDFFbzpl6OCRkZEfRI6nqgYAAABN1JtTPnf1yuE/UQpMIWTSVq4cOTbl+O+IWKgaAAAAtEpK8Tenr+/5B5XoXjqwmJRVp4yenHKcH8IrAAAAWizn+PtVK0Y+oBLdS4DFhK1aMfKeSPnMiOhVDQAAAKbJ2lUrRv5OGbqTKYRMyOoVI3+RI/5JJQAAAJgJOce/rP9oz3tUorsIsBjvKSKtWjH6bxHxp2oBAADATEo5ffj0j9b+OCJl1eiSY64EbMuyZbk2d05jXYq8SjUAAABoCymt22PP2lvWrk2lYnTB4VYCHs+yZbl33uzRcyPl16oGAAAAbeb0PfbqWSPE6nwCLB7TmjV59ujw8Kcj0gtVAwAAgLaU42N77N1z8tq1aVQxOpcAi0e1YkVeWMTIFyPiCNUAAACgraU4a489e1bqxOpchRLwSMuX551qMfKNEF4BAABQBTlOvuG6kf9QiM4lwOJhVq3asqSnNvKtHPFk1QAAAKBC/njlKUP/qAydSYDF7yxfnneKsueCiNhfNQAAAKialNL7Vq8ceZ9KdOCxVQIixsKrem3kohRxsGoAAABQaTm9+4yP9vyrQnQOARaxcmXeMZUjF0WKQ1QDAACADpAj4s1nnNn7EaXoDKYQdrm3nJAXpTzyFeEVAAAAHSRFxIdXrxh6g1J0zgGlS61YkRcWMfL1iHiqagAAANCBRnIqXr1+ff2LSlFtOrC61FtOyIuKNHJRCK8AAADoXD0pl588dcXI0UpRbTqwutCaNXnB6PDIBRHxNNUAAACgC9xXlPnI087q+6VSVJMAq8s8EF59LSKerhoAAAB0kRujGHnmGWfMuUUpqscUwi6ybFmeNTo88vkQXgEAANB9do9Gz1fXrMkLlKJ6BFhdYtmyXJs7Z/SciHiuagAAANCVUhwyOjLymWXLcq9iVIsAqyvkNG/OyH+lyK9WCwAAALr7ETmOmTtn5MMKUS0CrC6weuXwP0XEapUAAACAiBSxauUpI+9XiUodMzrZ6pXDf5JzfFAlAAAA4GFyRKw648zeM5Wi/QmwOtiqU4ZOjJTOCp12AAAA8GhGIqeXnfHRnq8pRXsTYHWo1aeMvjRH+dlIUVcNAAAAeEz3FWU+8rSz+n6pFO1LgNWBVq4cfkbKcWFEzFENAAAA2Kbrc+p52vr16U6laE+mlnWY1auHDkk5zg/hFQAAAIzXnimPfHzt2mwWU5sSYHWQFSvy4rKRvhQRi1QDAAAAJuTYG64f+VdlaE+mEHaIFStyf8rD30gRz1QNAAAAmJyc05vWn9V7mkq0Fx1YnfHzSqkcPl14BQAAAFOTUv6/K5cPP0Ml2osAqwOsPmX471OKE1QCAAAApqwvFfmzJ5+8dVelaB8CrIpbefLQ63PEX6oEAAAANM3iWqp96m1vy31K0R4EWBW26uSR56QUHw1rmQEAAEBTpYhnbrlveJ1KtAcBVkWdunxg70j5vyNCGgwAAACtcfLqkwf/RBlmns6dCjrxxDy/rz783Yg4RDUAAACgpUZzURy1fn3P95Ri5ujAqpi1R+d6b33kUyG8AgAAgOlQT2X58ZNPztsrxcwRYFXMDXuO/GuK/HyVAAAAgGmzez0NnxmRzWSbIQpfIStWDL0h5fiYSgAAAMBMyO9Y/9H+/1CH6SfAqogVK4YOSDl+FBHzVAMAAABmxEiU6cj1Z/f+UCmmlymEFbBqVZ6Xcnw6hFcAAAAwk3qiyOeuWZMXKMX0EmC1vZzKxvD6iDhQLQAAAGDG7TM6NPwRZZheAqw2t2rF8F+kiNeoBAAAALSHHLFs5cnDb1aJ6WMNrDa26uSBY3IqvhYRddUAAACAtjJY5PTs08/q/blStJ4Aq02deuLW3Rr1+k8j8k6qAQAAAG0ox29Hc+9Tzz47bVGM1jKFsA2tWZN7ynrxceEVAAAAtLEU+9eKkX9WiNYTYLWh4aGRf8+RjlAJAAAAaG8p8ltXnTx4nEq0us60lRUrBl+ScvqiYwMAAACVcfPQSO+h552XNipFa+jAaiOrVm1ZknJ8NIRXAAAAUCW79vUO/7sytI4Aq02sXZuL3Oj5aETaQTUAAACgYnKcsuqUodcoRGsIsNrEddcMvycimzMLAAAAFZUjf/jUUzfvrBLNJ8BqA6ecMvzUlOLvVAIAAACqLO3YGO35L3VoPgHWDFu+PM8pcj43InpVAwAAACouxytWnTJ0okI0l8XCZ9jKU4bOiMgrVQIAAAA6xr1RlIeuXz/7RqVoDh1YM2jVKUOvE14BAABAx1kQZWEqYRPpwJohp564dbdGPf0iIm2nGgAAANCBcnrD+rP6PqEQU6cDawasXZuLRk9xjvAKAAAAOljK/3vFirxQIaaurgTT7/prht4aEUepBAAAAHS0xSkP/WNEvFUppsYUwmm2+oSBPct6ujQi5qkGAAAAdLwyyvLI9efM/p5STJ4phNMqp0Y9rQvhFQAAAHSLIori/61Zk3uUYipFZNqsOmXoTSniBSoBAAAAXeXQ0cGhP1WGyTOFcJqsWrVlSR6tXRYRC1UDAAAAus7WWs6HnHb2rGuVYuJ0YE2TPFr7cAivAAAAoFvNbqT0n8owOQKsabBq+cCKiHi5SgAAAEBXe/GqU4ZeowwTZwphi605acsuo0XtshyxSDUAAACg692c6n0HnnFGul8pxk8HVouNFLX/FF4BAAAAD9g1RgffqwwTowOrhVYsH1qWUv6kSgAAAAAPMVCM5gNPP2/W9UoxPjqwWuSty/LclPK/qwQAAADwCLNyT/yTMoyfAKtFBmYNfSAidlUJAAAA4JFyTq9fdfLAc1RifARYLbDyxKGDIuIdKgEAAAA8hpSj+JeIbHmncRBgtUItfzAiehQCAAAAeGz5GStPGX6DOmyblK/JVpw8dEKKfK5KAAAAAONwU09/3/7r1qWtSvHYdGA10apVeV6K/P+pBAAAADBOu40MDL9TGR6fAKuJ8sjQ30bEEpUAAAAAxi3l9645acsuCvHYBFhNsmLF0KGR4m0qAQAAAEzQ3JGi/g/K8NgEWE2RU2rk/4iIuloAAAAAE5dPOXX50IHq8OgELk2wYvngSZHiaJUAAAAAJqnWSHltRLxeKf6QrxBO0YoVuT+Vg7+NiD1UAwAAAJiCnMraU844p/cXSvFwphBOUcqD7wzhFQAAADB1KRflB5ThUQqjBJN3wgmbFvXX+6/OkRepBgAAANAEORflM848c86PleL3dGBNQV+99wPCKwAAAKCJUirT+5XhEUVRgsk5dfnA3o0Uv46IPtUAAAAAmikX+Vlnnjn7ByoxRgfWJJVF/GMIrwAAAIBWKNPfKsLv6cCahBUrtjwtlcUP1Q8AAABolSLFUad/dNa3VEIH1uSKVhb/M4RXAAAAQAuVEf+gCmMEWBO0YvngS3LE81QCAAAAaKkcR65YMXC0QkTUlWD8li3LtRSD/xxZLQAAAIDWKxrxFxFxcdfXwVAYv7mzBk+KiENUAgAAAJgOOeKFK04cOrTb6yDAGqdly3ItcrxPJQAAAIBplFJRvrvbiyDAGqe5swbfGBH7qwQAAAAwzd548skDe3RzAQRY47B2bS4ix3tVAgAAAJgBPbWc3t7NBRBgjcP1Vw28PiIOVgkAAABgZuQ1K1ZsXNitey/A2vYASVEka18BAAAAM2leavSt6dadT47/41uxfOuyFOmTKgEAAADMsNtyrX/vM89Mg9224zqwHldOKeKv1AEAAABoA4vT6OAbu3HHBViPY9XJA6+MSE9SCQAAAKAtpPjztWtz1+U5dUf+seSU89BfR2SlAJiEnp6IOXNTzJkdMXtOijlzI+bMTjFrVkRv39gM9lotoq9v7N+v1SP6H/j7RS2ivz9iZDhiZGTsnw8O5WiMjv3nrVvH/lyWEQMDY+fp0dGIga0RW7fm2PrAnx/86+xUDnSxOXNSzJodMXtWitlzImbPHvvr+gNPArNmpSgeeAyaPTt+d37u7x87J9d7Inp7IwYHI8rGH56Th4YiGg/8/eGhHAODEVu25Ni6JWLL5hxbtkZs3ZJjeNixAGiSA264ZuiFEXF+N+20AOsxrDpp6Pgc+TCVAHi4efNSbLd9iu22i9h+hxTbb59iu+1SLFiYYs6cFHPmjAVWvb3tsb05R9x/f47774u4774c927Kcf/9OTZtirjnnhz33JXj7rtzbLo3/+7BDKDdFUXEggUptt9h7By8aLsUixZFzJufYv78FAsWpJg/f+yvU5usejs8PBZkbdkyFnDduynHPfeMnYPvvivHPfdE3HP32DkagG3d45Zvji4LsCzi/hhWLh/4XkQ8SyWAbpPSWDC1ZNcUu+5axOJdfh9Sbbd9+wRTzVY2Ijbdm+POO3LcfluO22/PccftOW6/vYzbb8u/6wQDmC71esSOO6VYvDjFzouL2GnnFDvvnGKnnVIsXJSiVuvM/R4eHguyHgy3brs1x803l3HLzWNBl65agIiIaEQ9771+/ewbu+Y5xTH/QytO3PK0VBQ/Ugmg0+2wQ4pdlqTYdbcidt11LLRasqSIvn61eaicI+68I8dNN5Vx8005bropx803lXHbbbq2gCbckKeInXZOsdvuY+fiXXcb+88775SiqKnPQw0NRtx669i5+Oabc9zyYLB1t2AL6Mrrx9+ecdastV2zvw75H1q5fOvHI+L1KgF0klmzInbbvYj9njD2xz77FjF3rsvAVDQaEbffluPKKxpx5ZVlXH9tjltuKT1EAY9r4aIUe+1VxJ57FbHX3in23a+IOXOcj6diaDDihhvLuPK3ZVx1ZRlXX1Waigh0vBxxa++sWXuuW5e6Yq6AK+UjnHzy1l1rOa6NiB7VAKqqKCJ22aWIPfdOsd9+Rez3hFrssqR91kHploeoyy9rxFVXlhYuhm4+H9ci9ti9iP32L2Lf/Yo48MAi5s5zMp4O927KccUVY4HWddeWce01ZYyOqgvQWXLOrzrznDmf7YZ9dfV8hJXLt/5zRPy5SgBVs3hxikMOrcUhhxax/wE10wDbRKMRcd21Zfz68t8HWh6goHMVtYh9lhZx0CFFHHhQLfZeWkSP16JtYWgw4je/acRll5bxq0sbcdttOrSA6kuRvnLG2bNe3B37yu+sWZNnjwwM3BAR26sG0O5mzU5x0EFFHHJoEQcfWosddnBKr4Lh4YgrftuIyy8r49JflHHzzaWiQMXttFOKJz6pFgcdUsQBB9ai3wuESrjrrhy/unQs0Lr88jIGtgq0gErKRS6ecPo5/Vd1+o562nmIVcu3/HGO9H9VAmhXu+1exFMOK+KQJ9Zin6WFxX07wJ135PjFJY245OeNuOK3urOgCooiYt/9injSk2vx5KeMTdGm2spGxNVXj3Vm/fxnZdx0o5cLQHXkiH868+zZ7+v0/XS1/f0hTyuXD1weEQeoBdBOdt2tiKc/oxaHP70Wu+zitN3JBgYifnlJI378o0Zc+stGjIyoCbSLohZx0EG1eNozavGUw3wEo9PdemuOH/9w7Hx8803CLKDt3Tl34azdP/jBNNTJO+nK+4CVJ295WeT0BZUA2sGuuxZx+NNr8fRneLPfrQYGIi75eSN+/MNG/OrShs4smAFFEXHAgUU87Rm1eOrhNaFVl7rl5hw//lEjfvyj0bjlZtMMgTaV4g3rz5r9ic7eRSIiYuXyLRdEpONUApgpO+yQ4ogja/G0p9djya5Oz/ze5s05fvj9Rnzvu4249hqdANBqu+5axBFH1uKZz6rFwkXOx/zezTeX8eMfNuK732nE3XcJs4C2ctH6s2c/r5N30BU5IlYvv/+QMmq/VA9guhW1iCc/uRZHHVOLQw6tRXIWYhtuuTnHd78zGt/7TiPuvdfDEzTLnDkpnvXsWjz7ObXYa+9CQXhcOUf86tJGfPMbjbjkkkaUDTUBZlxZK2PP086dfVOn7qBHpYhYtXxgXY78JpUApsuiRSmedUQtjnlePbbf3qmYSdyhlBGX/rIRF3x1NH59eRlZlgWTstdeRRx1TC2e+ex69PWpBxN37705vvvtRnzz4tG48w4nY2AG5XjP+nNm/0un7l7XPzUtX57n1GPrLRFpvtEOtFKtFvHkw2px1NG1OPgQ3VY0z6235rj4otH4zrdGY2BAPWBbenoinvnssZcIe+2l24omPTfmiMt+1YhvXtyIS37WiIauLGD6/Xz92bMP69Sd6/rHp1XLB1bnyKcZ50Cr9PVHPPeoerzwxfXYbjupFa0zOBjxnW+Nxle/MmptFngU8+alOPKoWhz3/Lq1rWip++7N8Y2Lxrpkt251PgamT1k0DvnoR+dd1on71vVX7pXLt34vIp5lmAPNtmBBiue/sB5HH1uL2bM9KDGNNy6NiJ/8pBFf+fJoXHetRd9hl11SvODF9Xj2EfXo6VEPps/WrTm+cWEjvv61UesWAtMk/8P6s+f8TSfuWVc/Ua1YMXRAajR+bYADzbTjTime/4J6PPfoevT2qgcz68ory/jsf4/Ery8XZNF9dt21iBe/rB7PfFYtCjMFmUGjoxE/+mEjvvT5kbj1VkEW0FLXrz971t4RqeNONl0dYK06aeu/5oh3Gd9AM+y9TxEveWk9Djvc+la0n19fXsbnPzMSv/2NIIvOt8eeRRz/ynoc9lTnY9pLzhE/+0kjvvzF0bj2GudjoDVSEc8+46zZ3++4/erWA7psWe6d2zdwU0TsaHgDU7HrrkW85nX1ePJhNcWg7f3m8jI+9cmRuOZqD050nl2WpHj1sh7BFZVwyc8a8d+fHI2bb3Y+Bpru/64/Z/bbOm2nuvbSvuqkra/LEZ8wroHJ2m77FMe/oh5HHlU3NYXKufyyMj5+7kjcdKMHJ6pv0XYpXv7Kehz53HoU3iVQITlH/OTHjfjUJ0bizjtMLQSa5s6e2bN2XbcujXTSTnVtgLXipC1fTZFeYFwDEzV3XoqXvbwexx5Xj3pdPaiusoz47rcb8Zn/HolNGz04UT2zZ6c4/pVj52OLs1Nlo6MRF319NL74+dHYfL/zMTB1KeeXnHHunPM7ap+68UCuPmFgz7LI10SEnglg3Pr6Ip73/Hq89Ph6zPJVQTrI8HDE+V8ajS9/YSRGRtSDCtzApohnHVGL172xJ+bPdz6mcwwNRlz49dH40udHYmBAPYDJyxHnnnnO7JM66vrfjQdy1Ulb1uZIHzCkgfE+KD37ObV47et7YsECD0p0rrvuzPHJj4/ET37UUAza1oEHFfGGk3pi9929h6Rz3Xdvjg2fGInvfacRWUMWMLmnmHs3D/XvtGFDGu6YPeq2Q7h2bS6uv2rg2ojYw4AGtmW33Ys46ZSeeML+HpToHpdfVsbZZw7H7bd5aqJ9LFiY4o0n9sTTn2mRK7rHlVeUcfaZ1isEJqfM6biPnjvrwk7Zn667A9h79/c+NyLeYSgDj6e3N+Jlr+iJN/1Rb+y4k64rusuOO6U45nn16OtLccVvyyg9NzGDHuyCfcc7e2PvpV4m0F223z7FUUfXY+68FFddWcboqJoAE7qGbrzkl//jKx2zP912AFeeNPChiPwWQxl4LE97Ri3ecGJPLFokuIJbb8lx1vrh+O1vpFhMvz32LOKUlT2x9z6CK9i0MccnzhuJH/7ANG9g3K5ff87svTplZ7rq6WzZslyb2zdwc0TsbBwDj7TTzilOPLknDn2i6SnwUDlHfOvi0fj4eSMxNKgetF5Ri3jRi+vxytf0+NorPMJvfl3GOR8djltuNs0bGM99XPnEM8+de2kn7EtXPaU98/D3PC9y6L4CHialiKOOqcfb39kXS5Z4yw+P9hvZa+8invnsetx0Yxl33akbi9bZdbci/vTP+uLZz6lH4ZQMf2CHHVMcdczY7+PK31rkHdjGfVykmy+59B+/3Rn70kVWLd+yLud4kyEMPPQm8NQ1ffGEAzwlwXjkHHHhBaPxqU8Mx/CwetA8RRHx0uN74vhX6rqC8bryijJO+6+huPMOKRbwmH64/pw5z+yEHemaAGvt0bl+/W5bb4mIHY1fICLiaU+vxSmre2P2bGtdwUTdeksZ//Wh4bjhet1YTN3226d40x95mQCTMTwc8d+fHI6vf21UNxbwaMqeiN3WnTPn1qrvSNdMIdzrOe95QYq0xtgF5s9PseYtfXH8K3uip0d4BZMxb16KI46sR9mIuOpKIRaT99Sn1eJP/6wvdjGFGyb3QFeLOPSJtdhn3yJ+c3kZg9YqBB4uNXL89pJL//FnVd+R7rlTyOn1xi3w1MNr8ff/1B9PeaqF2mGqenoiXvv6nnj7O/ti7lxhMBPT2xux6k298cdv74s5xg9M2SGH1uJv/7E/nvYM9zjAw6UUx3fEfnTDwVq2LPfO7d96a+TYztCF7n1QOvHk3jjyKAurQCvcfXeOD31wKK69WjcW27bz4hR//Pa+2G13XVfQCt/7zmictd5ahcDvDIym2TuefXbaUuWd6Iq7hrm9W18gvILutf0OKf7ir/qFV9DK39n2Kd731/3x/Bf6nfH4nvyUWvzN3/YLr6CFnv2cenzg7/tj1139zoCIiJhVi61HVX0nuqK/9MlP+uv3R8QTjVnoPk85rBbv/vO+2HEnN3DQakUxtg7LTjunuPSXjWg01ISHj49lr++JE0/ujd5eUwah1ebNS/GsI2px++05brnZ6u5AuuWSX/6PCyq9B51+iJYty71z+rbeGRHzDVjorgell7+yJ17+yp5InpNg2t1wfRn/8e9DcffdHpqI6O9P8ea39saTn2JtHpgJF39jNM49azhGR9UCulaKn5559pzDq70LHe6UEzc/L6X0daMVuse8eSn+6I9746CDPSjBTNq0KccH//dQXGNdrK62004p3vGuvlhiKhPMqGuvKeM/PzgUd9/lxQJ0qcZwObLjeect3FjVHej8O4kULzVOoXvsf0ARf/eP/cIraAMLF6Z471/1xzOfbV2sbnXQwbV4/9/2C6+gDey9tIj3/21/HHiQeyToUrW+es9zq7wDHX83kaJ4iXEK3eE5R9bjPe/tj4ULzRmEdtHTE/Hmt/TGstf3KEaXOeLIerzrPX0xZ65zMrSL+fNTvPsv+uJ5x3mxAN0ol/mYKm9/R5+5Vp0wuLSMxv6GKXS2lCJe8aqeeMWrPCBDu3rJy3pi/oIUZ54+bHH3Ljner32dNQihHRVFxEmn9MbOuxTxsXOGI5tRCN305FTpAKujO7AatfJlBih0tno94k1/1Cu8ggp4zpH1eOe7+6K/X6rRyQ/GJ68c67gTXkF7e/4L6vHHb++L3l61gC5y6PLl9+9U2fuMTj4yqcymD0IHmzs3xZ+/rz+eZX0dqIyDD6nFn7+vL+bOk250mt7eiLf/aV8cc6xzMlTFUw+vxV/8ZX/MX+CcDF0i1ctaZdfB6tgAa/nyPCdSHGV8QmfaaacUf/X+vtjvCRYGhqrZe2kR7/vrvli0yANTp+jri3jHu/riSU+xODRUzdJ9ilj79/2xx57uqaAb5FTddbA69ixV5K3Pi4h+wxM6z777FvHXa/tj8S5utKCqliwp4i/f3x877STEqrrZs1O8+72+/gpVtmhRivf9dV888Ul+x9DxUjq2qpvesU9/KceLjUzoPE98Ui3e877+mGf6EVTeDjukeN/f9Meuuwqjq2r+ghTv/au+2HdfxxCqrr8/xTve2RfPOsI0YOhoOR9w0klbdqnipnfu3UYSYEGnOfzptXjbn1psFDrJwoUp3vO+vthliQCkahYsSPHev+yL3fdw7KBTFLWIU9f0xhFHCrGgk9VTelYVt7sje0RXnLj50Ij0PsMSOscznlWLP3pLX9TcT0HH6e9P8bSn1+KXl5Rx/32+514F8+en+PP39cUS3XPQcVKKeMphtdi6Jcc1V5UKAh0o57jmF5f+44VV2+6OvOtIOV5oSELnOPrYerz5rX1RWJYBOtb8BSn+4i/7YolOrLY3b36KP//Lvth1N8cKOlVKEScs742Xv7JHMaAzPa2KG92Rdx65SM81HqEzvODF9Th5ZW8kS15Bx5u/IMW739cXO+3sB9+u5s0fCxqFV9AdXvXannjlq4VY0GlSxNMicuVuuDru7mPt2lxEjiMMSai+lxzfE288UXgF3WTRohR/8Zf9sf32fvjtZtasFO96j/AKus0rXt0TJ53ifgw6zIIVJwztW7WN7rgJOUt3e88Tc8Q7jUeotlcv641XvcYbP+hGs2anOOSJtfjRD0ZjeNiaWO2gtzfine/ui333M5cbutHSfYqYOy/i0l82FAM6RSp/cMml/3hplTa5416hlTmbPggV97KX98TxrxBeQTdbsmsR7/rz/ujv98p/xm8Wi4g1b+mL/Q8UXkE3e97ze+KNJ/kUNHSQyq2D1XEBVo5CgAUVvzl6zevcHAERey8t4m3v7Iu6r4/OmJQiVq/pi6c+zUEAIp7/wh4Lu0PnXOUFWDMrpxT5SAMRqulZR9TjxJOFV8DvHXRwLU59c5+1V2bIq5f1xrOfI7wCfu9Vr+2NF71UiAXVl5+y9uhcqYt8RwVYK954//4RsbOBCNXzlKfW4tQ1HlKBP/SMZ9XjVa8Rbk+3I4+qx8te7iEV+EOve0NvHHWMcBsqbvY1u2w5qEob3FEBVk410wehgg46uBZv+ZP+KCyvAjyG41/ZE8ccJ0yZLgceVIuTV/YpBPCoUoo4eWVfPONZQiyo9m+5WtMIO2sKYTJ9EKpm3/2KePu7+qPHcymwDScu741DDpV0t9puu1t7DBjHg2QR8aY/6osnPdl5GaoqpfLwSp13Oqr4ETqwoGIPSe98T3/0eckPjEOtFvGWt/XF4sWFYrTI3Hkp3vGu/pg1y3xuYHzn5be+vT+esL8QC6opHVylre2YO8Dlywf2jog9DECoyEPS3BRv+9O+mD3bQxIwfrNnp3jHnzl3tOxB9G19scOOaguMX29vxNve2Rc77ezlAlSQNbBmQr1sHGHsQYUekt7uRgeYnMW7FPGWP+mLwimkqU5c3hsHHqSLApi4uXNTvONdfbo3oXq2X/PG+3aoysZ20q3f04w9qIaTTunzkARMySFPrMWrl/kyYbMcfWzdIvnAlCzZtYjVb/ZFaaia0YgDqrKtHRNg5UiHG3rQ/p73/J44+lgrAwNT95KX9cThT3M+maql+xRx4nKLEQJT99TDa/GKV3u5AFVSFrUDq7KtHRFgLVuWaxH5SYYetLeDDq7FCSe5qQGaI6WI1W/ujV2WmEs4WXPmpPijP+mPuuYroEle/sqeeMazvFyAyshZB9a03nz1bjkoIuYYedC+dtwxja1ZY+Yg0ET9/Sne+ra+6JWNT1hKEWve2hc7WrQdaPK5ZdWb+mKvvb1cgIr8ZnVgTXPBTR+ENjZrVoo/fU9/zJ3nIQlovt12L2L5ClPgJuplr+iJJz7JWwWg+Xp7I/7kT/tj/gL3ftDusjWwprngOT3VsIP2tfLU3lhiig/QQs95bj2OeI4pK+O1/4G1eKV1aoAW2n77FG9+q0XdoQL2XLMmz67ChnbIE2UpwII2dczz6vG0Z3ioBFpv+YreWLxYWL4ts2eneNOb+6JQKqDFDjq4Fi97uUX2oM0Vw5u3PKESG1r1Sq89OtcjkgXcoQ3tulsRbzjRtB5gevT1p3jzH/dFXWb+uE5Z1Rvb76AlApger3x1b+y3v+nK0M5SUY11sCofYF2zy5aDImKWIQdt9iDZFxZWBqbdXnsXpsY9jqOPrcfTnynhA6bxgbMW8ZY/7ou5cwXn0LYq8iXCygdYKaWnGW3Qfk48uS+W7Gp+CjD9XnJ8Txx4kLf9j7R4lyLeeJKuWGD6Ldouxao11sOCdpUjdqnCdlb/6bII619Bm3n6M+px5FHe8AMzI6WIN/1RX8ye7Unpd7dLxVhNdMUCM+Uph9XiuBdYDwva1E6VuJ+p/E1qzocZa9BGZ76di1hxqickYGYt2i7F609wLnrQi1/WE0v30RULzKzXvaE39tzLuQjaT7FjJbayyiVeuzYXEXGIwQbtoVaLeMuf9MWsWboegJn33KPr8cQnm0q4625FvPJVwjxg5tV7xu4V+/rdK0I7yTqwWu+6K+7bJyLmGG7QHo5/RW/stbe3akD7WHlqX8zp4oWDi1rEqW/ui7pZO0Cb2HlxEcte76QE7SRFrkQHVsUXqSkOjZyNNmgDu+9RxEtf7mYEaC8LF6Z4wxt74vR1Q125/y9+iRcLQPs59rie+NH3R+OK3zYUA9rDgre9OPd98PzU1jdMVb+jOdQ4gzY4kdQiVr2pP+rWbQfa0BHP7Yl99+u+qYTbbZ/i+Fd6sQC0n5QiTn1LX/T1mUoI7WJgu4G278ISYAFT9tLje2Ovpd7wA+37oHTSir4ouuw09caTPBwC7WvHHYt41WutzwftopFy26+DJcACpmTJrkUc/0o3H0B723OvIo46pnu6kQ46uBaHP11bLNDeXvDinthvfx/bgLZQZh1YrbJsWZ4VEfsYZTCDJ5Ai4tQ/6o8eM1SACnjN63pj7rzO70iq1yNOPKXPAQfaXkoRq97U514S2kAVvkRY2QBrXm3rwREhrocZ9KKX9sbepg4CFTFnborXLOv8jtEXvKg3luzq3AxUw+JdinjFq3Xzw4zLoQOrZbVNDdMHYYZvNl75GjcbQLUcdWxPR6/Zt2hRipe/SisDUC0vfmlv7LmX4B1mVCHAapkyWf8KZtIbl2v3BqonpYhTVvZH6tCZhK8/sS/6+i3cDlTsubk29rGN5PQFM6c0hbB1N6CRnmiEwcx4ylPr8cQnmcELVNNeS4s48qjOS+CfsH8tnv5MC7cD1bTvfrV49nOcw2DGJB1YrSzuwUYYTL96PeL1J5g6CFTbsjf2xty5nfOqX/cC0Ale98a+mDXbiQxmRNKB1RInnLBpUeRYbITB9Hvxy3pj58XWKACqbe7c1FHr+D3/hT2x+x7OzUC1zV+Q4vhXWKMCZkTOOrBaoZ6LA4wumH6Ltkvx0uPdVACd4ZjjemKPPasf+sxfkOIVr9IZC3SG57+oN3ZZIpCH6ZZDB1ZrNjrF/oYXTL/Xn2BxYKBzFEXE8g6YdveGE0y5ATpHvR5x0il9CgHTLEXMXbMmz27re7dqVrYQYME02+8JFgcGOs++T6jFs46o7rltvyfU4plHODcDneWgQ2rxlMOc22C6jdw3sH07b18lA6xUZgEWTOeJoohYvtLiwEBnet0b+2LWrOqd4IqaczPQud5wUm/0WLkCplWulQvb+t6nmk/TYQ0smEbPPtLiwEDnWrCwmgu6P+8452agc+20cxHHHCfBgulUlOWCtt6+qhV07dG5nnMsNbRgetTrES9/pZsHoLMd94JqhUHz56d45Wst3A50tuNf0Rv91l+FaZOLWNjO21e5AOu6JfftHRFW9YNpctSxPbHjTt7wA52tqEWcVKEF3Ze9sTdmW7gd6HBz56V4/ou8SIXpUuZCB1YzpZSsfwXTpLc34qUv94Yf6A5P2L8aH6vYe2kRRxzpgQ7oDi9+aU/MmSuwh2mR8sJ23rzqtVXkwvpXME2Oe2FvLFrkhgHoHm88qb0XdE8pYvnKfgu3A11j1uwUL36p0B6m5T4jZx1YzVSGLxDCtN0svMzNAtBdFixM8bJXtO+575jjemLvpaZ1A93luBf2xPwFkntotWQKYbMLGgIsmAYveklPzNWuDXShF7y4N3ZZ0n63SHPmpnjVa0zrBrpPX1+Kl1nWAlrPFMKmb/F+RhW01tx5KV7wYt1XQHeq1yNOOqX9vhfzujf0xtx5XiwA3emY43pihx11oEIr5Yi27sCqV6mYa9bcMnt4c97ZsILWeunLfbIY6G4HHVKLw59ei5/8aLQttmfpPrU48mgvFoDuVa9HvOwVPXHmaYOKAS2TFrbz1lUqwh66f97eEeGpGlpozpwUxxzrIQngjSf1R1/fzN92pBRx4sl9Fm4Hut4Rz+mJhT4wBC1kEffm3cBFXmpAQWsd+/ye6NN9BRDbbZ/ipW2w5spzj+6JpfvWHBCg69V7Io57gbWwoIUWtvPGVWsScRJgQatvCo59vpsCgAe9+GW9sXiXmbtdmjMnxWte1+dAADzg2Of3xKzZXrZCi+jAauLm7m08Qes858ieWLjQDQHAg+r1sel7M+U1r++LefOdlwEeNGtWiudaExBaZWE7b1zFAiwdWNAqKUU8/0W6rwAe6ZAn1uPJh03/d2/23KsWRx3jIQ3gkV744t6o19UBWmDW216c27b1u1I/+5xjb+8goTUOO7weS3b1aWKAR3PC8r647JejMTIyPf9/KUWctKIvCqdlgD+waLsUT3tGT3z/OyOKAU22ee7m+RFxZztuW9Vui/YynKA1XvRS3VcAj2XHnYp4yfHTd5484rk9se9+Fm4HeCwvOb7X11mhBXJPubBdt60yAdaKZZsXp4i5hhM0337712LfJ3hQAnjch6WX98WOO7b+1mnWrBSveb2F2wEez267F3HwoeYRQrMVZW7bhdwrE2CV9dIC7tAiuq8Atq23N+INy1sfLL36db0+qAEwrntY6wRC0xX1hW27aVWpYUoWcIdWWLRdmpHFiQGq6LDD6/HEJ7funLnr7kUce5yXCgDjcdAh9dh5scUCoZnKXLbtzLfK/NqLstCBBS3w3GN6LBIMMAEnntIX9Ra89E8pYvmK/ijM6AYY93nzub7WCk2VU57TrttWVKiIexhK0OQTQBFx5FEu+gATsdPORbzwJc3vknrWc3pi/wOlVwAT8dyje1ryUgG6+ClRgNUEuxtI0FxPfHI9tt9B+xXARL38lb1NPX/296dY9gYLtwNM1Nx5KQ57quUwoFlSLme367YJsKCLHf08r6sAJqO3L8XrTmhe4PSq1/bGwkUWbgeYjKOOtXYgNEvWgdUUAixookXbpTj0Sd5WAUzW059Zj0OeOPXz6JJdi3jeCz18AUzWgQfXYvEuZhVAM6ScdWBNxapVd86LiPmGEjTPUcf2WrwdYIreuLwvalNctuqklf1T/t8A6OoH7hRx5NFmFkCTflA6sKYiD/XrvoJm/vCLiOc8V/cVwFQt2bWI579o8t1Tz3h2Txx4kPQKYKos5g7NogNrivUrBVjQRE96isXbAZrlFa+Z3PpV/f0pXn+ChdsBmmHuvBSHHe4FLUyZDqwpykmABU307CO9ngJolv7+yS3o/vJX98ai7SzcDtC0e9znuMeFKSuzAGsqcsq7GUXQvAetJz7Z2ymAZnrWET1xwASmAu68uIjnW7gdoKkOeWI95s71YgCmJCVTCKdEBxY0zVOfVo9ez0wATXfSivEvxn7iKX3WagFoslot4vCne1ELU6MDa4oEWNAsT3+WizpAK+y6WxHHPn/bbwie9ox6HPok52KAltzrPtvbAZgai7hPtYACLGiCOXNTHHSIhyaAVnnVst5YuPCxp6/09qV4/YkWbgdolQMOrFlfEKakfRdxr8iTbF5iEMHUPe0ZPVGXXwG0zKxZKV7z+r44/b8GHvWfv/yVvb4CC9DKR+801un6tfOHFQMmxxTCyVpz/C2zI2K+MQRT90wt1QAtd8Rze+IJB/zhYlg77VzEC1+i+wqg1Z7hnhemwhTCyRqaPXsX4wembuHCFPvtX1MIgBZLKeKEk/ujeMRd1omn9Fu4HWAaLN2nFjvtrNsVJskUwskqUrFzjmwIwRQ9/Vk9f/AwBVWXc8R99+bYtKmMTRtzbNxYxn335hjYmmPr1hwDWyO2bBn76/zApWR0NMfQ0APXmGJsyteD+mel6OmJmD07xew5D/wxO8X8+SnmL0ix/Q5FLNpu7O/B49lzr1ocdWxvfOPrY1NYDju8Hk98sjncbNv99+XYtLGMe+4Z+/OWLTm2bI7YumXsvLZ1a47h4RzDQ7//72x9yDmuf1aK2gPX+6I2dj6bNSvFnDkpZs2OmDU7xYKFRSxYkGK77VMsWFDE/AXOaXTgve8ze+KLnxtSCJi4njVrcs+6dWmk3Tas7e+kctFYHNlTN0z5Iv4sr/2prqGhHDdeX8bNNzXi9tvKuO3WsT/uvKOM0dHp357evhTbb59i8S5F7LKkFrvsWsSSXYvYZZciZgm3eMBrXtcXP/7hSAwP5Xjj8n4F4Xc2b85xy01l3HpLI269pYxbbi7j9tvK2HhPGSMz8LhQ74nYeeciFu9SxM6Li9h5l1rsulsRu+9Ri95ex4uq3vvWBVgwScPDm+ZExKZ22662D7DKXCz2KABTM39+iqX7mD5INeQcccP1jfjtbxpx3bWNuO6aRtx2axll2T7bODSU45ZbctxySxnx04cnaDsvLmLvfWqxdJ9aLF1aiz328gDYrebMTfHa1/fFpk05dtjRy7huNTCQ47prG3HN1Y245qpGXHtNGffcXbbVNo6MRNx0Uxk33fTw7arVInZZUsSee9Vi76W12P+AWuy2Ry2Sm3MqYPc9arHdDkXcfVepGDBBtcHe2SHAmrgUsbPhA1PzxCfX3WzS1m67tYxfXjIav758NK74TSO2bKnu1PHbbxvrpPjBd0d+9wC47361OPjQehx8aD32XloznbeLPPeY3miMqkM3GR2JuPKK0bjsV4247NLRuO7axu+m91VNoxFx041l3HRjGd/99tg5bc7cFPvvX4sDDhqbFrt4Fyc02teTn1KPCy/wNUKYqLIYbct1sNp/MYacFkeyBhZM6eJ9mHVXaLNTe4648opG/PynI/Hzn47Gbbd27tvRRiPit78Z6yj79IahmD07xcGH1uPwp9fjSU+pR3+/dLmTpRQWbu8C99+f42c/GY2f/ngkfvPrRgwPde6965bNOX7209H42U9H47yzxzq0nvLUejzlqT2x7366s2gvTxJgwSTvX4u2/Gxy+z/VprzY8IEp/MjrEQcfKsCiPdx2axnf/dZIfPc7I203hWa6bN2a48c/HIkf/3AkenoiDn1SPQ5/ek8cdrgwC6pk8+ax3/JPfjgav/n1aDQa3VmHW28p49ZbhuPLXxiO7Xco4tnP6YkjjuzRmUVbOOCgevT2pY4OlaEVilpDgDVJAiyYgv0PqD/sK2sw3UZHIn7w/ZG4+MLhuOrKhoI8xMhIxM9+Mho/+8lozJqV4pnP7omjju2Jvfa2Zh20o5wjfvPr0fjmRSPxkx+PxOiImjzU3XeV8YXPDsUXPjsU++xbi2OO641nPqtHFyIzprc34qCDa3HJz8zlhokoSh1Yk5NicQjMYdKeZPogM+TeTTku+vpwfOPC4bjvXifybRkYyPGNC8fqtedetTj2uJ444sheD37QJr/Pb140EhdfNNzRU56b6eqrGnH1VQPxyfMG4+jn9caxz++NhQu9UGMG7oWfUhdgwQTlaLTlJ4ja/CqS0ylvuG8gIvoMIZicf/73ubHzYm38TJ/77svx1S8Nx9fOH5qRz8F3kvnzUxz7gt54/ot6Y84cD34wE+eziy4Yjgu+MhxbNgvip6Jej3jOUb3x8lf3xnbbuS9h+mzamOOdf3x/ZT+mADOhLOJFZ5+34Kttdy1p56KdcMK9C6NMwiuYpCW7FsIrpu9B794cX/zcUFx84XAMWy+1aQ/Pn/3UUHz1S8PxvBf0xkte3huzZwuyYDoeeD/36aH4zjeHBfFNMjoacfGFw/Hdbw3H0c/rjZe9oi8W6MhiGixclGK3PWpx4/WWMYDxKto0h2nrAKt/pNipUROVw2T5+iDTodGIuOiC4fj0hqEY2Oqc3QoDA2Ph4DcuHI6XHN8bL3hxX/SYWghNNziY48KvDccXPjscgwPOZ60wMhJxwVeG41vfGIkXH98bL3t5n6nSTMs9sQALxi/lUoA1UbkW2xs6MHmHPkmARWtd+ovROO+swbj1FmvCTIctm3Ns+NhQfOPrI/HaN/TFM5/tqQ+aodGI+MbXh+Nznx6K++8TXE2HoaGxDtMffHckTji5P574ZPcstPae+AufGVIIGKccqS3XwGrrK0UZsYOhA5P8cfdE7LOfm0FaY2Brjk+cNzZdkOl3151l/L8PDsTFXx+OU06dFbssMVUYJuuG6xtx5kcG45qrdWfMhNtuLePf/nlrPO2ZPXHK6v6YO9e0Qppv6T616OtLMTQkoIbxSMkUwonLsX24hsGk7LtvLXp71YHm+9UvR+OMdYNxz926rmbab37diPe/d3O89BV9puHABA0P5fjcp4fj/C8ORel0NuN+/IOR+O2vR2PFqbPisMO9gKPJD731iH32q8Xlv/I1QhiP3KZTCNv6lW3SgQWTtv9Bbv5orkYj4ryzBuNf/2mr8KqNjIxEfPZTQ/F3f7PFVE4Yp6uuaMRfvmdLfOnzwqt2ct+9Of7jX7fG2esHY1TOQJMdcFBNEWCcUpEEWBOvmjWwYNIX6QNdpGmejffk+J9/tyW+dv6wz1C3qRuub8QH3rc5LviKaZ3wWHIeW0D8f/7dlrjrTslVu7rwa8PxD+/fEnfe4RjRzHtjL3dh3NfLNl0Dq60DrJxLARZMgvWvaKZfXzYa73/f5rjqCuvDtLvh4YhzPzoY//l/BnwREh5h08Yc//wPW+Pcjw5Gw+ms7V13bSP+7q+3xGWXasWiOZbuW4vePuvTwHiknHVgTYIphDAJ+1j/iib58Q9G4t/+eauvclXwuK39K1MK4UHXX9eIv/ubLfGby4UhVXL//Tn+7Z+3+mAITVGvj90jA9uWUwiwJiwlHVgwCQdY/4omuOArw/Gh/xiIkRG1qKLbbyvjH96vewF++P2R+B9rrd1XVY1GxJmnDcaGjw2Zws7U75EtsQHjkiObQjgJOrBgEvY/wMWZKVyw8tg0tHM/OuhhoeK2bBnrXrjwAt0LdOe57FMfH4oP/8dADA85mVXdlz4/FGevd11iarzkhfFJuT0XcW/zX3DWgQUT/VHXI/bdT4DF5B/4zv3oQHz9qwKPTtFoRJx9xkDcc1cZy97YryB0hbKM+OjpA/HNi5zLOslFFwxFYzTHijfNimQpIybhwWU2hoclofB4UjaFcKKPUSkitjN0YGKW7lO3QCWTO+vmiHPWC6861Zc+PxQfP0f3Ap2v0Yj4r/+7VXjVob75jeH46OkDzmVMSr1nbDF3YBvPBSkJsCZixYpNC6LtO8Sg/ey9j4syk/Opjw+aatbhvvKloTjzIx786FwjIxH/8a9b4offt3hfJ7v4wuH4xLmDCsGkLHWvDOPgK4QTMxgLDRqYOAEWk/GNC4fjS58fUogu8M1vDMc56wcUgo5TlhHr/nNr/OLnPlzQDb7ypaH42vmuW0zcXkvdK8M25bCI+4Q2LMcCowYmbm8XZSbokp+NxtlnCDS6yYUXDMenPq57gQ66z84R6z8yED/+oc6rbvKxswcdc9wrQyskHVgTMlLowIKJmjU7xU47FwrBuN10YyM+/B9bo/R1+a7zxc8N6bqjY3z8nMH49sWmQHebnMe67q67tqEYjNsOOxYxd671YuHxpbZczkkHFnSQvZfWfJWHcdu6NccH/21rDPm8fNf61McH43vf0b1AtX3xc0Px1S8LY7vVyEjEf/7vrbFls2sZ43wsT6YRwrZ/KCHAmli9CgEWTJBFKRmvnMe+0nX7bVqvun0crF+3Na6+UvcC1fTLS0bj0580Hbbb3XlHGR/STcwEmEYI29SWP5L2nWuUTCGEifI2ifH68heGLHRMRIx1L3zw37bEPfd48qNabrqxIbTgdy67dDTO/4JOPNwzQ1NkUwgnVi9TCGHCvE1iPG68vhGf+ZSOBX5v06Yc/+dftsaI2YRUxJbNY2N2cMC0MX7vM58ajBuu11GKe2aYqhylDqwJlkyABRMwb36K7XewgDuPb3QkYt2HBmJUUMEjXH9tIz5+tq9RUoGb6hxx+n8NxJ13aL3iEde40Yj/93+F8WzbdtsXsWChhWPhsRSRBFgTujkJHVgwEd4kMR6f+dRg3HiDt9M8ugsvGI6f/siTH20+Tr82HD/7iXHKo7vlpjI+q8uYcdhrb/fO8FhyWMR9QpIACyZkjz1dhHl8N93YiK98yfogPL4z1g3E3XfpbKE93XB9Iz5+rk5BHt9XvjQUN93oZQ3unWHSskXcJyRZAwsmZMmuLsI8zjUoR5x1+mA03M+zDVu25Piv/xyIbGkh2szwcI4P/cdWU6DZpkYj4uz1g85jPK5d3DvDY0s6sCZasIVGDYzfkt2sf8Vj+843h+OK3/rqIONzxW9G46ILhhWCtvLZTw3FbbfoDmR8fvvr0fj+d6SdPM69867uneFx6MCaiJzyPGMGxieliMW7uAjz6AYHcmz4mPVAmJgNHx80lZC2cf21jfjql02BZmI+ed5ADA1pw+LR7bKkiGQdd3gsdRs1EWWaa8zA+Gy3fRH9/a7APLqvfGko7rvXDTwTM7g1x0dPG4h3vXeOYjCjGo2I9R8ZiIYmUiZo08YcX/vycBz/qj7F4A/09aXYbrvCyxp4dDqwJkiABeOkBZrHcv99Ob7yJVPBmJxfXjIaP/yeKTjMrK+dPxTXXWMBPybny18Yis33e4nDo9vVEhzwWKyBNUFe+cK4L74WoeTRfeEzQzE44MadyfvkeYMxPGwMMTPuuzfH5//b1EEmb2Brji9+zhji0S1xDw2PRQfWeB19dK5HhF5fGKdddGDxGA9+F1+o+4qpufuuMr7yReOImfHfnxyMASE8U3ThV4fi3k3GEY9yD73EPTQ8Bh1Y47XXwk2mD8IE6MDi0XzlS0M6Z2iKL35uKO652xohTK8br2/Et78hPGXqRkYiLvyaLizcQ8ME6MAar7KnYfogTIC3RzzS1i05vnGBBz+aY3gox2c2ePhjen3s7MEo5aY0yYVfG47BQS91eMQ9tFkM8FgEWONVj14dWDBOCxammDPXFwh5uIsuGDbthqb67reG47ZbpQlMj99cPhqX/8pnB2meLZtzfPMiL3Z4uDlzUixc6D4aHoUphOOVi1IHFozTzou1PvNwjcbYm2ZoprKM+PynBxWCafHZT+n4o/m+/pXhyN7t8Ag7uZeGR9OWP4y2TNXKnOeGIBzGZYcd/Vh4uEt+NhIb7/HJeZrvB98djpe/qj8Wm7ZMC13529H4zeUjCkHT3XlHI371y5E49Ek9isHvbL9DigjJJjyCDqzxyinrwIJxX3Q9SPJw37hA5wKtUZYRn/+MLixa69OfNMZo4TXy6zqUebgd3EvDo7EG1rilQoAFLrpMwh23l3HZpdaNoXV+8N3huPMOa2HRGldfORq/vsw5jNb5xc9G4p57nMN4yL30ju6l4VEIsMa/Udki7jDei+5OLrr83ne+aX0PWqssIy78qi4/WuOrXza2aK1GY+yjFPCg7bwMhspoy19rmfNshwbGxxRCHuqH33NTTutdfJGvXNJ8G+8p46c/svYVrff9bxtn/N6OOrDgUa1dm9vux9Gmv9bUb7jAOH4p6cGFJyHiqitG4/bbTIug9QYHcnznm8JSmuuCrwxFw/cnmAa33NyIG28w2Biz3Q4pkttpqIQ2XQMrC7BgHBYsKKKnxxWXMT/4njfKTJ+vf2XIdFWaZmgoxzcvEooyjdfM77pmMqa3N8W8+e6n4ZEuuyza7ofRlgFWyqnPcIFt217LMw/IOeJH3/fwx/S5/bYyLv+VxbZpjh//YCS2bJaIMn1cM3koC7nDH7rzTgHWeB/FdGCBiy0TcPWVo3HfvR7+mF7fvtgDIMYSFX0wu6OMm0wj5AHWlIU/9IQnCLDGJ1sDC8ZDgMWDfv5TnTBMv5/+aDi2bBGcMjV33lHGFb9xDmMGrp0/M42QB+6pBVhQCdbAggpbtMh8fcb8wk04M2BkJOIH39U5w9R86xvD1lNjRlzi5Q8P3lNvL8CCR9q4UQfWOOnAgvGYt8DFlgemQdxoGgQz4zumfjEFOUd81xctmSHXXGX6PWPmW8Qd/sDizQKs8dGBBeOyYIGLLRG/+oXuK2bOtdc04rZbSoVgUn7769G45x7jh5mRc8Rll7qGEjFvvpfC8Ej373ydAGs8fIUQxsfbIiIifn25KRDMrJ/8SAcNkxw7PxQeMMPX0MtcQ4mY76Uw/IEtW+oCrPHRgQXj4W0ROUf8RoDFDPuxEIJJnr9+8iNjh5klwCLCS2F4NIsGawKscUnWwIJt/niLiDlzXWy73U03NqzfwYy7/tpG3HG7aWBMzJW/HY1NG40bZtadd5Rx913GYbebO6+I5LYaHmZgYSHAGo9sCiFs+0I7N0WhAavr6b6iXZgKxoTHjO4r2oQuLGo1L4bhkXrurbXd02a7TiEUYME2zPcFQiLiqt+66aY9XPIzYQQTHDM/NWZoD1df5Uu+RMy3NAe0vXb9ldYdGnh888zVJyKuudpNN+3hqitGY8tm01kZn9tvK007pX2upVd5GYR7a6iCNg2wUo9DA49PBxb335fjzjs8ANIeyjLi8l95CGR8Lr1E9xXt46YbGjE8JIDv+ntrARY8zNA8a2CNU9aBBS6ybMPV3hjTZn75C6EE43PpL5y/aB+NRsT11+lo7vp7ay+H4WHmDLffpw3aMijKET3JSxB4XHMtNNn1rrumEeFcSRu59OejkXP4khOPa3Qk4jeXjTp/0VauvboR++3vHXo3mzcvOS/BQwyPJB1Y45FymEII2zBrtifEbnfj9d4W0142bSzj5puMSx7flb8djSHTtWi3a+oNzl3drn+We2t4qOHZOrDGqyb+hsc3a5YadLubbhgN50razRW/Ho3ddq8pBI/pt78ece6i7dxyowCr2/X3h3MTPER9oNZ2DU/tugZWr+EC27jIekvU1YaHsi940Zau+I21jXh8v/21MUL7uenGRmTZRXffW/e7t4aHGp1Vtt3DRruuVGcCOmxDn4tsV7v55tKNNm1JOMHjaTQirr5KpwvtZ2gox113ejHUzbwchofr3dp+TxvtGmBZAwu2dZEVYHW1m63VQZvaeE8Zd+oO5DFce/VoDFv/ina9tppG2N331gIseJiROTqwxksHFmzrIivA6mq33+Ymm/Z1xW91YfEYY8MUU9rYbbe6trq3Bh7Ud3+pA2vbcgoBFmz7IustUVez/hXt7OorhRQ8uquuMDZoX7pHu/zeul8N4KFGFjR0YG3L0UeHTxfBuC6yAqxudocOLNrYddcYnxgbVPDaKsDq7ntrL4fhYWZt0oG1TTvu2LbTGqHNLrJq0NU32Xe4yaZ93Xh9IxpyCh7h/vtz3HO3cxdtfG293Ymrm/lAEjzc8PZDOrC2Zc6c6wRYsK0fbhHR2+si2622bsmxZbNFkGlfIyM5brnJgyAPd901pg/S3u66sxS+d7H+/hTJ7TX8zrzb99KBtS1bttSdNmBbF1gtzl3t7rt0MND+hBX84ZiQDNDeGo2Ieze5xnarlLwghoca2j10YG3LosGaswZsg4trd9u40c017U9YwSNdf60xgWss7c00Qvi9K64IHVjbMrCwcNaAbaj7Tmd331zf4+aa9nfTjcIKHjEmbjAmaH+b7jFFv5vVfE4Mfufoo3VgbVPPvTVrYIGLK49jo5trKsAaWDzU6GjEnXcYE7S/TTqwulrhHht+Z+1aHVjbNDRPBxZs++LqZ+LmGtrb/ffnuP9+YStjbrvVlylxjaX9aaWAh0oCrG2ZM+zbD7DNH65fSVezwCxVoQuLB916s7FANQiwuvwe20tieFBbvoVsuwBreESABdtSswZWV7v/Pl0tVMMtQgsecPNNQgGqYctm19iuvsfWgQUPassLd9v9RGs9hdMGbOuH61fS1bZucXNNNejA4kE6sKiKzQKs7r7HtgYWPEgH1niMjOrAgm2paW/u8ptrnQxUw+23Gas8OBYEWFSDDqxuv8dWA3iADqzxGOkPT+bg4oqbazrAXXcIsBhzp7FARejA6vJ7bAvNwoN0YAFN+uH65XatgYHsS15Uxl13lpE9C3a9wYEseKcytuhy7u57bC+J4UECrPFIqfRoBttgCmH3GtjqIZDqGB7OvppJ3HmnMUB1jI5GjIy41nbvPbYawANMIRyPuSOluxzY1g/XxbV7A4EhN9VUy13Ci65n+iDVu9aqQdfeY5vlAA/SgTUeG2NUBxa4uPIYhobVgGqxDhbGAFUzOOhlUbcyywF+py1zmTZ8DB4SYME2uLR2ryE31VTMXXcJL7rdPXcbA1SLbmc32UB7Blj19tuk3RoR9xgu8LjcWHWroaHs+FMp1sBi08aG8xaVMjxsvHb3PbbjD6EDq9qFAmiLm2pvhakYARb3bnLeolqGrIEFMNqOG9V2HVgbNkR5yjKjBeBRryQj4cUglbJpowCr2228p3TeomLXWgO2a2nAggeZQjg+Kee4u4z27A6Dtrm20p1Kz4FUzCbdN8bAptJ5i2o9tcndu/oe2/kKxk6F7bhRhWIBVEdZuq2iWu7VgdXVhodzDGx13qJq11o1ALqeAGv8sssGgJtqOsDgYPZJ+i5m/Ssqea1tGLdA12vLNbDaNMBKOrAAHu2mWoBFBW3Z7GGwW22+30kL11qACtKBVfViAbiphokTYHWvraYPUsWnNk8iAAKsqhcLYKZlz4JU0NYtktduJbzEtRagkgRYVS8WADBxW7Z4GuzaYy/AAoDKSZGsgTUBAiwA6BACLMceAKiOMrIOrAkQYAFAh9CF08XH3vRRAKicZArhhLjbAYAOYSHv7jXo2ANAFQmwql4sAGDihoeEGN1qaEgNAKB6sjWwJkCABQAdQoDVvYYcewCooKQDq+rFAgAmbmhYDbrV8LAACwCqxhpYE5IFWADQIXRgOfYAQHWUAqzxS6YQAkDHEGJ0L2tgAUD1JGtgjV8WYAFAxzCFsHuZQggAVVTowJqA0oABgM4wIsRw7AGACskj7bhV7RpgjRgwANAZSq+lHHsAoDpyCLAmwIoJANAhGg1dON1KgAUAldSWC0C0a4A1aLwAQGcQYjj2AECltGWAVW/TYg1GeFsL8IdyOD9SuVFbGrPdqiydswD3WVA5hSmEEzhtZB1YANAhGr4t3MXH3oMgAFRNimwK4QSqJcACgA5hGpljDwBUR86FDqzxSqVF3AGgU5SmEHbxHbASAEDV6MCa2FbpwAIAqDj5FQBU8Pqdkw6sCVRLgAUAAAAw3YoswBq3nARYAAAAANPMFMIJyClZAwsAAABgmrXrIu71Nq2WDix43N+IEjj+YMxSkWPv+APOWVApKenAGv9GZYu4AwAAAEw3i7hPaKt0YAEAAABMN2tgTYRF3AEAAACmXSnAGj+LuAMAAABMv6JNF3Fv0w4sUwgBAAAAplsZpQ6s8cqmEAIAAABMu1qhA2sCW1UKsAAAAACmWcMaWBNQ6sACAAAAmG45lzqwxl2ssiHAAgAAAJhmKRc6sMatXgiwAAAAAKZZzlkH1niVjboACwAAAGCapVzTgTVevbWRIUMGAAAAYHrlekMH1riN9OjAAgAAAJhmKXp0YI3XvKG7BgwZAAAAgOlVNnRgjdsHz99vKCJKwwYAAABg+hR5pC07sOrtW7I8GBGzDR141N+HEjj+YMxSkWPv+OOcheMPVdKY1a8Da4InDtMIAQAAAKZRrTZoDayJSQIsAAAAgGk0OLizDqwJybHVsAEAAACYPhs2hABrglumAwsAAABg+oxEpLZcDM4aWAAAAABERHt2X0VYAwsAAACAMcPtumFtHGCZQggAAAAwjXRgTVTWgQUAAAAwnXRgTVTK1sACAAAAmDY56cCacM1ybDVyAAAAAKZL1oE1YSkNGjgAAAAA0yRF22Yx9batWS4HIpLBA48mK0FXH3vHH+csnLPAOQvHH1rzG2jbAKt9O7CyRdwBAAAApktKMdSu2+YrhAAAAABEpKwDa8I1i1KABQAAADBNck46sCZctPAVQgAAAIBp08Yf1GvjDixTCAEAAACmSy6zDqyJE2ABAAAATJci+QrhxDcsWwMLAAAAYLrkrANrwhp1HVgAAAAA08YaWJOomSmEAAAAANMmJx1Yk9iwUQEWAAAAwDRJZWrbAKverhs2GsVAEdnogUflt9Hdx97xB5yzAJyzoAUKi7hPYsMKHVgAAAAA0yS3cQdW2wZYPdEjwAIAAACYLqnUgTVR98V9AiwAAACAaVIkHVgTtmHDboNhAjIAAADA9MhJB9bEpRzRvouHAQAAAHSSMpU6sCYnm0YIAAAAMB10YE1WEmABAAAATINCB9akCbAAAAAApkOpA2uyBFgAAAAA06BMhQ6sScnWwAIAAACYDrWiIcCalJR8hRAAAABgOpSFKYSTJMACAAAAmAZptCbAmlzlsgALAAAAYBqMFiOmEE5KNoUQAAAAYDqUs3t0YE1GzqYQAgAAAEyH7e65RwfWpJhCCAAAADAd8gfP33e4XTeuzRdxN4UQAAAAYBoMRaTcrhtXb+fKFTkN5siGEMBDOS1izFKlY+/4A85ZUBVD7bxxbb6Ie6kDCwAAAKDFUrT3OuRtvgaWKYQAAAAArZYj68CafPUEWAAAAAAtl9NAO29eewdYhSmEAAAAAC2XTCGcvFIHFgAAAEDrtXcG09ZfIYyiHIycjCGAh/F5HIxZqnTsHX+cs3DOgmoodWBN+vRhDSwAAACAaaADa/LKNJgLCTg8kl9Fdx97xx/nLJyzAFyzoAUs4j75rWvowAIAAABouWQK4aTlQoAFAAAA0HJZgDX5rbMGFgAAAEDLpRBgTVYuRwVYAAAAAK1nDaxJq5tCCAAAANBy2RTCydeuURNgAQAAALRYjjTUztvX1gFWOdQjwAIAAABotewrhJM2Mvt+ARYAAABAiyVrYE3ehg27DUZENowAAAAAWqiwBtYUpBwRw0YRAAAAQOvkMgRYU5EiTCMEAAAAaKXCGlhTkgVYAAAAAC2VorQG1hQJsAAAAABaKJc6sKZYQQEWAAAAQEvVBFhTkwRYAAAAAK2Uy4YAa4oEWAAAAACt1NCBNUVZgAUAAADQQqm3sIj7FEsowAIAAABoodyo6cCaogHDCAAAAKB1emvDQ+28fVXowBoyjAAAAABaZ7i3t63zl3r7lzAPRM5GEjzsZ+E30b3H3vHHOYuKHXvHH3DOgkro6blvuJ23r/07sHJpDSwAAACAFtqyZa+Rdt6+CgRYFnEHAAAAaKHGhg2p0c4b2P4BVgoBFgAAAEDrDLf7BrZ9gJV1YAEAAAC00ki7b2AFOrCsgQUAAADQQjqwpipFGjCOAAAAAFojCbCawBRCAAAAgJbJAqwmFNEi7gAAAAAtk6yB1QTZGlgAAAAAraIDqwlStgYWAAAAQMvkLMCacg0La2ABAAAAtEyRBFhTVjYEWAAAAACtkrM1sKYq1cMUQgAAAICWSQKsKSsLHVgAAAAArWINrCbUsCHAAgAAAGid1Gj3LWz/AKs+LMACAAAAaJGUYrTdt7HtA6xyRAcWAAAAQKvkyAKsqaoPFRZxBwAAAGiZwhTCqRpcsLMOLAAAAIAWSTqwpm7DhtSIiBHDCQAAAKD5chZgNYsuLAAAAIBWKEwhbBbrYAEAAAC0QNKB1SRZBxYAAABAK1ThK4T1SlQyZQEWPOL0Qjcfe8cf5yycswBcs6CpTCFsEgEWAAAAQAv4CmHzKmkNLAAAAIAWyDkJsJpTSR1YAAAAAC1RtP8UwmqsgSXAgkf+JnD8wZilGsfe8cc5C+csaHumEDbvTCLAAgAAAGiBXJpC2KRKJmtgAQAAALRC4SuEzZFMIQQAAABojSzAak4dBVgAAAAArWAKYbOkJMACAAAAaIGUQoDVHKU1sAAAAABawhTC5pQx0pDBBAAAANB8OUwhbFYlTSEEAAAAaIGUsgCrKYUskimEAAAAAC2Qy0KA1aRK6sACAAAAaAlrYDWnjNlXCAEAAABawRTCZhWyCFMIAQAAAFoghymEzVHqwAIAAABoDVMIm1PGQoAFAAAA0AqmEDZL2RBgAQAAALRAbphC2BQpWwMLAAAAoCXqphA2R63QgQUAAADQAqlhCmFT5IYACwAAAKAVytT+UwjrVShkrg8PprIwouD3vwolcPzBmKUix97xxzkL5yxodynCFMJmqFkDCwAAAKAlCl8hbI68pW4KIQAAAEALNJKvEDbF4IKdBVgAAAAALeErhE2xYUNqRMSIAQUAAADQXLXRUgdWE+nCAgAAAGiyRqoJsJrIQu4AAAAATWcKYTPpwAIAAABoslrR0IHVRDqwAAAAAJos5R4dWE2kAwsAAACgyYo8Otzu21ivTDWzAAse8nvA8Qdjlmoce8cfcM2CtjdS6zWFsIknEgEWAAAAQJM1RkZG2n0bqxNgJQEWAAAAQLON9vcLsJrIIu4AAAAATbZocFCA1TxJBxYAAABAs+2yiwCreUoBFgAAAECTrVsXFnFvHh1YAAAAAE02GpHa/huc1sACAAAA6F4jVdhIXyEEAAAA6F4CrGbKZRoypgAAAACaSoDVTKkoTSEEAAAAaK7RKmxkdQIsa2ABAAAANJsOrGYqcxJgAQAAADSXAKvJG7rVmAIAAABoqkoEWPXKlLPMW3JhVAHdLkeOrAxUbtTSzWcsx5+qjVucs6Drzns6sJqpTDqwAAAAAJopCbCaK5tCCAAAANBcKQuwmqkmwAIAAABorpwEWM1UCrAAAAAAmivrwGpuPet5i1EFAAAA0EQpjVZhMysTYA3Xsg4sAAAAgObSgdVMc+4cFWABAAAANFclAqx6Vap55sV7D570ipsbEVEztgCgOkZHI669ekQhulBZqgEAtLtcka8Q1itW14GImGt4AUB1bNrYiPf/2Z0KAQDQhgpfIWwJC7kDAAAANEn2FcKWsA4WAAAAQLMkHVhNlwVYAAAAAE2TIw1VYTsrFWCllAVYAAAAAE2SUlmJAKtai7g3ii2RstEFdK/8wB8AALjPgmYM/awDqxV0YAEAAAA0SZFjsBLbWamqJgEWAAAAQLNYA6s1BFgAAAAATZIrsgZW1QKsLYYWAAAAQHMkHVitKKoOLAAAAIBmMYWwJUUVYAEAAAA0SzKFsPmyRdwBAAAAmkYHVms2VoAFAAAA0CSpFGA1nSmEAAAAAM1TlQ6serWK2tiaIhldEFkJHH8AANxnwZQV0dCB1Wy1sthiaAEAAAA0Ry7SYBW2s1IBVmkRdwAAAIDmKQVYTWcNLAAAAIDmKRtxdxW2s1pTCAVYAAAAAE0zMqcuwGq2UoAFAAAA0CzDGzbstLkKG1qtKYT1bBF3AAAAgOa4uyobWqkAa7iWdWABAAAANEMSYLXE4s2DOrAAAAAAmiGne6qyqZUKsD54/n5DETFihAEAAABMmQ6sVkk57je+AAAAAKaq1IHVKjnFZgMMAAAAYIpSur0qm1q9ACuSDiwAAACAKUqRBVgtLK4ACwAAAGCKyigEWC0kwAIAAACYoqIsb6vMtlatuFmABQAAADBlo1HTgdUqKSziDgAAADBVfbUhHVitkq2BBQAAADBVQ2d+dq97q7KxlQuwilwIsAAAAACmIsVtESlXZXPr1Stwvi+ycUaX8xtw/AEA11maf+wdf7przN9Wpc2tXAdWmbM1sAAAAACmIsWNVdrc6k0hjGQKIQAAAMAUpBw3VWl7LeIOAAAA0GVyrlYHVuXWwMqR70/GGU41StDVx97xBwD3WbjPgqlJRTKFsJVqvkIIAAAAMCWpNIWwpRo1i7gDAAAATEWjYRH3lupJozqwAAAAACavcfPArrdVaYMrF2CVqUeABQAAADBZKW69+OI0WqVNrlyANVC/V4AFAAAAMHnXVm2DKxdgbdhw8HBEDBtrAAAAAJOQ8zVV2+SioqXWhQUAAAAwGTnpwJqWOkcSYAEAAABMigBresocWYAFAAAAMAlFaphCOC2yKYQAAAAAkzGckgBrOuRCgAUAAAAwCYMHHLb7bVXb6IpOIRRgAQAAAExUirhu7dpUVm27q9mBldNmQw4AAABgYnJOV1Rxu4tqbrRF3AEAAAAmrMi/reRmV3GjswALAAAAYMJSDgHWdMmRBFgAAAAAE5SiFGBN20ZnHVgAAAAAE1Ub7RVgTZcchQALAAAAYAJSxD3rz9/lzipuuzWwAAAAALpAGdVc/yqiogFWraYDCwAAAGBikgBrOuXc2GTQAQAAAIxfivKyqm57Vb9CuMmwAwAAABi/VMalVd32SgZYjVzbZNgBAAAAjF9K6VdV3fZ6FTf61vt32bTb3BtzRCTDj66UlaCrj302AAAAWnKj5T6LzrbxrC/ucXNVN76SHVgXX5xGI/JmYw8AAABgXH5V5Y0vqrrhyTpYAAAAAOOTq7v+VUSFA6ycYpPRBwAAALBtuYjLqrz9RYW3faPhBwAAALBtVf4CYUSVA6ysAwsAAABgHMre2qxLqrwDVe7A2mT8AQAAADy+FOmKMz6/4/1V3ocKB1jJFEIAAACAbco/q/oeVDjAKjcZgAAAAACPL6f4edX3obpfIbQGFgAAAMA2pSh1YM3YhhdpkyEIAAAA8Ljy4HDtkqrvRGUDrBRhDSwAAACAx3fdhq/ufk/Vd6K6UwhDBxYAAADA40kRP+qE/ajwGlgCLAAAAIDHleKHnbAb1V0DKxWmEAIAAAA8jlyWAqyZ1BjdsskwBAAAAHgMKUaGZtd+3gm7UtkA69zz970/IhpGIwAAAMCj+sWGDbsPdMKOFNXd9JRTxL3GIgAAAMCjyPGDTtmVotLHIYV1sAAAAAAeRc7ph52yL5UOsFKOTYYjAAAAwB/KHfIFwoiqd2BF2mQ4AgAAAPyB28774u5XdsrO1Ku88TlMIaQ7ZSXo6mPv+AMAuM+CcQzqb3XS7lS8A6vcZEQCAAAAPFxK6dudtD+V7sBKERtl5HQn497xBwCg+fdY7rPoHI0i6cBqGynda0gCAAAAPMzG/Q/b7VedtENF1Q+IMQkAAADweyniO2vXprKT9qniAZY1sAAAAAAeLn+70/ao2ou459hkUAIAAAA8RIoLO22XKv4VQlMIAQAAAB7inn2fuuclnbZTlf4KYT3HptLABLqNj+MAALTmHst9Fp3hok5b/yqi6h1Yo6YQAgAAAPxOShd24m5VOsCqD2VTCAEAAAAeUCuLizpxvyodYJ158d6DEbHV8AQAAABIN5z15d2u6MQ9Kzrg4NxlgAIAAADdLufywk7dt8oHWCnluw1RAAAAoNulovhqp+5b5QOsMocOLAAAAKDbNYZH0gWdunPV78CKLMACAAAAut33Nnx193s6decqH2DlKEwhBAAAALpbivM7efcqH2AV1sACAAAAulwuSwFWmx8iUwgBAACAbnbreV/e6xedvIMdsIh7IcACAAAAulaK9OWIlDt5H6s/hTCbQggAAAB0tc93+g5WPsAazaYQAgAAAF1r6+yi/vVO38nKB1i99YYOLAAAAKBLpa+u+8KSrZ2+l5UPsPpjlg4sAAAAoEvlz3XDXlY+wHogZRwwYAEAAIAu0yiLni91w44WHbEXOXRhAQAAAF0mfftjX1jSFZlIvTOOV747InY3cOkeWQm6+tg7/gDgPgvHHyIiys91y54WHbIfOrAAAACAbpJrRfnpbtnZjgiwkgALAAAA6C7fO+sL+9zQLTvbEQFWTvkO4xYAAADoHukT3bS3HbKIexJgAQAAAN2ibNTSf3fTDndGgJUEWAAAAEB3SDm+/fHP73FLN+1zZ0whLEsBFgAAANAVypQ/0W373BkBVqEDCwAAAOgKo7mWP91tO90RAVbZKARYAAAAQMdLEV/72OeX3t5t+90RAdacnq0CLAAAAKDz5XxON+52RwRYZ3z+gPsjYqtRDAAAAHSw+2fX+j7XjTte75g9yXFnROxpLNMVshJ09bF3/AHAfRbus+hS6b/XfWFJVzbwdE6AFfmOiCTAoisMDeW447ZRhehCm+8rFQEAWui+e0v3WV1qeEh6Rfsrcj67W/c9dcqOnPiS674YES81nAEAAIAOdNN+T99zz7VrU1e+1S46Zk9S3G4sAwAAAB0px0e7NbyK6KQAKydfIgQAAAA6UU5l7cxuLkDHBFgp8p3GMwAAANBxUlx0zld3v6qbS9AxAVZOOrAAAACAzpNyPr3ba9A5UwjLhgALAAAA6DT31LfGZ7q9CJ0zhbBmEXcAAACgs+TIZ5958d6D3V6HzgmwhstbDWsAAACgk9RS7TRV6KAA6+yv7XNnihhySAEAAIBOkCK+efaX9viVSnTSGliRco64zSEFAAAAOkGZ0n+qwph6R+1NzrdEij0dVgAAAKDibp17212fVYYxRWftTbrZIQUAAACqLkWsW/fTw0dUYkzndWABAAAAVFoaLYraR9Th9zqqAyunEGABAAAA1Zbis2d9cXezzB6i6Kzjmx1cAAAAoNLKFP+mCg/XUQFWURY6sAAAAIAq+/HHvrjX95Xh4TprCmEudWABAAAA1ZXz/1KEP9RRAdbQ4IAACwAAAKiq624euP6zyvCHOirA2nDxwZsj4n6HFQAAAKiaFPG/L774mFGV+ENFB+6TLiwAAACgajb11ofOUIZH13EBVo6wkDsAAABQKTnlD53x+QPMKnsMHRdgpUg6sAAAAIAqGezN6YPK8Ng6L8DKWQcWAAAAUCXrzvzy3rcpw2PrvCmERdaBBQAAAFTFSI78b8rw+DqwA6vQgQUAAABUQo4457wvL71eJR5f53VgZR1YAAAAQCWUuRb/Sxm2rd5pO1Srl7c0RgtHFgAAAGh3H//YF/b+jTJsW8clPf23bLw1IkqHFgAAAGhjjbIRf68M49NxAda6nx4+EhF3OrQAAABA28rpvI99TffVeHXkXLsUYSF3AAAAoE2l0Vxv6L6agI4MsHLEjQ4tAAAA0JZSPue8L+5zpUKMX4eudp58fhIAAABoRyOjufYPyjAx9Q7dLwEWAAAA0H5yXveJr+xxtUJMTId2YJUCLAAAAKDdbOkpku6rSejMDqycr4/k4AIAAADtI0f825lfXnqbSkxcR3ZgFWXWgQUAAAC0k7tSNP5FGSanIwOss7+27x0RscXhBQAAANpD+h/nnr/ffeowOUUH79sNDi8AAAAw41Jce0+MflghJk+ABQAAANBKOf78/PP3G1KIyat36o6liOuz4wsAAADMpJy+d+5X9vpvhZiaTu7AspA7AAAAMJPKoijfEZH02ExRxwZYZfgSIQAAADCT0plnf3mfn6jD1HVsgJUiX+fwAgAAADNkcyrTXytDc3TwFEIdWAAAAMBMSX9/zlf3ulUdmqNjA6zhufveGhEjDjEAAAAwnXLEFffE6P9Riebp2ABrw4bUiBQ3OcQAAADAdKpF+Zbzz99vSCWap+jovcu+RAgAAABMnxT542efv+9FKtFcRYfvnwALAAAAmC73F7XedytD83V0gJWSLxECAAAA0yOlvPasL+5+s0o0nw4sAAAAgKlK8YvZt2/8oEK0Rmd3YOUswAIAAABabTSncvW6nx4+ohSt0dEB1nAIsAAAAIAWS/Hv531p358qROt0dIBVzh2+MSJKhxkAAABokeuK0dl/qwyt1dEB1oYNBw9HhMXTAAAAgFbIKcWas7+2eItStFa903ewjLg6RezuUAMAAADNlCNO+9iXl16gEq3X8QFWynFVRBztUAMAAADNkiPf3Ndf/LlKTI+iCwbU1Q4zAAAA0EQ5RbH6zM/uvUkppkfHd2AVKV2Vc3akAQAAgOZI8V/nnb/0qwoxfTq/AyulqxxmAAAAoEmu6+8ZMXVwmnV8gDWydasACwAAAGiGMnJedcbnD7hfKaZXxwdYGy4+eHOkuN2hBgAAAKYk5X8676v7fkMhpl/RFXs59iVCAAAAgMlJ8dORuUN/qxAzoysCrBzWwQIAAAAmbUuR04kbNhw8rBQzoysCrJTLqx1qAAAAYDJSSu885ytLf6sSM6c7AqxIAiwAAABgwnLEp849f+lHVGJmmUIIAAAA8OiuHh2NU5Vh5nXHIu712pUONQAAADABIykVJ234+j73KsXM64oA67wv7bkxIjY63AAAAMD45Hefe/7eP1CH9lB00b7qwgIAAAC2KUd85ryv7PNBlWgfXRNgpQgLuQMAAADbckXf/9/efcdJdd/3/n9/zswuVZQIFVAxva3EAouCCoJFzZe4RC4riixHdhI5cRwndood58bGvrm/G+fnJC4pDs51ZCHYXca2bDUEArGiqrAgylIlZDUQvSywbeb7uX+wsmUZJMqWM3Nez8djHtJDyAZeu5qZ8+acM12jT0vmpIiPxAxYbtzIHQAAAAAAvKt69/DR+3826Agp4iU5Z2B54AwsAAAAAABwJu6uT1UuGlZHivhJzj2wTJyBBQAAAAAATs/9a5WLhvyEEPGUmAGr2VKcgQUAAAAAAE7Dfj5/0ZC/p0N8JWbAyjw+6E1J9XzJAQAAAADA22wzy32Sm7bHW5So363zSYQAAAAAAOCXDiunD89bOOwYKeItWQOWaSdfcgAAAAAAICmY+d3znxzCVpAHEjZg2Ta+5AAAAAAAwKW/nbdw6EJK5IdEDVjuvpUvOQAAAAAACWeaX/nE4G8SIn8kasBKedjOlxwAAAAAgORyWc1hhU9z0/b8kqgBq3txj22SAl92AAAAAAASqa5LV/vIwoXDmkiRXyxpv+FZ/+PFX0h6H196AAAAAACSw6U3POiGqsVDX6NG/okS+HvmRu4AAAAAACTLUSn6Hcar/JVO2m/Y3bea7P186QEAAAAASIRmM/vY/CcGbyRF/kreGVhmnIEFAAAAAEAyuJv//rwnhiwlRX5L4IDlDFgAAAAAACRhApB9sfKJYQ9SIv8lb8BqTjFgAQAAAABQ6EzfmrdoyLcJURgSN2BVLh28V/JDfOkBAAAAAChM5vbg8OuHfIkShSNK5DeyuA8WAAAAAACFyX/yRvOrn5o92wItCkciB6wg7oMFAAAAAEChcddDPQ8cnVlTMzVLjcKSTuTv2mybnC8+AAAAAAAFc6gvPXE45TMraye0UKPwJHLAioJtdWPBAgAAAACgIJgtLmqMPrKwZlATMQpTOpnf176N+QoAAAAAgIKwpOWi4jvnP3FVIykKVyLvgdXUa8jLkvjGBgAAAAAgv61saWr6SCZzVQMpClsiB6xMxnIuvciXHwAAAACA/GTS6q5dsr+TqSk5To3CFyX3G9228uUHAAAAACAPuZ5R5NN++PDIemIkQ5Tg7/ZtfPkBAAAAAMi3w3k9bSl//7yFw44RIzmSfAYWAxYAAAAAAHl1MG+PtPTuMo3xKnkSO2DlosAlhAAAAAAA5Alze7Dn/sMf44btyZRO6m+8V7rH9uPNJ4MSfRklAAAAAADx5/Jvz1885IuSOTWSKbHjzZxHBpyU9BLfAgAAAAAAxJl/s3LRsC8wXiVb0s8+2sS3AAAAAAAAseRy/+L8RcO+TAoke8AyZ8ACAAAAACB+cjJ9ev7iYf9CCkgJvgeWJLlHm0ycgQgAAAAAQHwO1tUQzCqqnhjyGDHwlkQPWCGlTakcAxYAAAAAADFxwKPoI1VPDFlJCrxdoi8hDD0GvyTpJN8GAAAAAAB0Lpc2K5WaUMl4hdNI9ICVyVhO0la+DQAAAAAA6FSLsrlo0vzHB79CCpxORALjRu4AAAAAAHTaYbnP2d30+gczS4YcJQbOJJ30AG6+ybgNFgAAAAAAHS3nbl+oXDTse6TAe0n8gKXgm2TGdwIAAAAAAB2nPshnVi0exicN4qwk/hLCbLqISwgBAAAAAOg4L7t0Q9Wi4YxXOGuJH7Ayjw96U9J+vhUAAAAAAGh3y1siTaxcNKyOFDgXXEIoSa7NkqYSAgAAAACAdjryln2v58EjfzmndkILOXCuGLAknfokQmfAAgAAAACg7dXL9fvznxyaIQXOFwOWJHffxH3cAQAAAABoWyZtVUofn7dw2BZq4EJEJJDcnBu5AwAAAADQhkx6MNLJ6xiv0BY4A0tSkRo259Q9iEEPAAAAAIAL1ST3L817cvh3SIG2woVzrWbdsfNFSUMoAQAAAADAeXstyCuqFg9/lhRoS5xx9CtcRggAAAAAwPl7tMWaxzJeoT1wCeFbzDbJ/U5CAAAAAABwThrl/uX5Tw77rmRODrQHBqy3BN/EBZUAAAAAAJyTTRaiu+ctGcJVTWhXXELYyi3wHxsAAAAAAGd5GC3Zd1t6N09gvEJH4AysVnuad784oPjKBkndqAEAAAAAwBm4XnHp9yqfHPo0MdBROAOrVU3N1KxJGykBAAAAAMAZmDItUfP4yieHMV6hQ3EG1tu4tE7SREoAAAAAAPBrjsn0ufmLhs0lBToDA9bbmNl6dz4wAQAAAACAXx0sa1E6F933wJIhrxIDnYUB623ctY4KAAAAAABIkg5L9uX5i4b8QDLO9kCn4h5Yb9PSu2mTpGZKAAAAAAASzZRJyUbOXzx0DuMV4vEtiV8z644d6yWNpQQAAAAAIIF2m/vn5j054iFSIE44A+sdWm/kDgAAAABAwg6HNadr1zCS8QpxxD2w3sHM18s5MQ0AAAAAkBg7o8jue/CJYTWkQFxxBtY7WPD1VAAAAAAAJECDZLNberdcw3iFuOMMrHeIrOmFnLrlJKWoAQAAAAAoUI+mFD4/d/HIl0mBfMC1cqdx9x07trg0ihIAAAAAgMJaAWyHefjzeYtHLCQG8gmXEJ6GS1xGCAAAAAAoJMcl/3pLr+ZrGa+Qj7iE8PTWS5pFBgAAAABAnnO5P+ih6K8qlw7eSw7kKwas0/7XHdYZJ6cBAAAAAPJbrUf2p5VPDF9DCuQ7BqzTsKJu69XS5OIeYQAAAACA/POqzP9u/qLhcyVzcqAQMNCcwaw7duySNIgSAAAAAIA8cUhm/9hyrOt3M2uuaiAHCglnYJ3ZOjFgAQAAAADi76Rc3ytuKfqH+2sGHSEHChED1hl40HozfYwSAAAAAICYapHrv6NUdvaDi0fvIQcKGQPWGUSRr3PnCksAAAAAQOy4pB9HUfSVBxcNfZEcSAIGrDMIuaJ1FmUJAQAAAACIDTN/Iheir1QtGbaeGkjU9z4JzmzW7TvekDSAEgAAAACATj56X2LB/m7ekmHPEANJxBlY78a1TsaABQAAAADopKNS12Pm/o15S0c8Tw4kGQPWu4m8Vm4fJAQAAAAAoAMFuWVM2f89b8moTeQAGLDenes5pwIAAAAAoGMEST+R+Vcrnxy+jRzArzBgvQtv0XMqkot7hQEAAAAA2k+zZA+EnP6h+qlhL5ED+E0MM+9h5h07XpRrCCUAAAAAAG3sqEk/ChZ9q2rx0NfIAZwZZ2C9F9dzEgMWAAAAAKCtDjP1YiT9a8oa/mvu4tITFAHeGwPWez6z2HMyn0kIAAAAAMAFHV7KVpnpm1WLhz4qGbdcBs4BA9Z7PcFE2efMI0IAAAAAAM5Hk0kLzMP/zycKAuePAes95Op7rk/3PNkiqYgaAAAAAICz9IakOWlLfX/u4qH7yAFcGG7ifhZm3r5jreRllAAAAAAAvIsg01PmPmd3y56HamqmZkkCtA3OwDoLbnrOXAxYAAAAAIDfZHrT3X5UZOE/5y4e+TJBgLbHgHUWItdzLv0xJQAAAAAArX55tlXPg3ATm5QAADMGSURBVMd/Nqd2QgtJgPbDgHUWcq5nIy62BAAAAABIe2T+Q4/8v6qeGPULcgAdg1nmrLjNvH3HIUl9aAEAAAAAidMo2SMym3vRwaNPcLYV0PE4A+usmJu217p0Ky0AAAAAIBGCS2siswe6dg2VP3x4RD1JgM7DgHWWXHpODFgAAAAAUOi2mCkTonA/lwgC8cGAdbZMz8nJAAAAAAAF6A0zr/Sc5lYuHbmRHED8MGCdpZTlns15ihAAAAAAUBheM/lD7pYZMWn46tmzLZAEiC9u4n4OZt6+/VVJV1ECAAAAAPLSKyb/ubtlKpcMXyUZ19kAeYIzsM6F+XNyY8ACAAAAgPzxC5M/zGgF5DcGrHPhek7SxwgBAAAAADE+cpNq3fWouT/EPa2AwsCAdU5Sz0pcFg0AAAAAcWLyk8HtqSiyR1qy/ljmqRFvUAUoLAxY5xLLTq7Netcs3QAAAACg0+1y1xKLokcPp7R44cJhTSQBChc3cT9HM2/fvlHStZQAAAAAgA7VYPIV7lpoFh6b/+TonSQBkoMzic6Ru9aYMWABAAAAQDvLSfaCS0si15LibNHK+2sGNZIFSCYGrHMUSavcdR8lAAAAAKDN7XJpSWS+RMXNS+Y/NuYwSQBIDFjnLBeiVVHEjdwBAAAAoA3skHyVuZa25HJLMzUlb5IEwOlwD6zzMPO27XskXU4JAHnoZ0H2laJU9kjIpUskn+TSTZKul9STPAAAoB21SFpn0upgWmGhaHXl0sF7yQLgbHAG1nnxVZJ9jA4A8sy2I0XRjLd9Qs8eSUskqbx8WXpA8eWlcpvkHt0k+SRJ/UkGAAAuwDHJ1piHVcF8xYluvZ975JEBJ8kC4HwwYJ0Hl60yiQELQF4xec2ZPl66pmZqVlJt6+M7kjTrth2DJZ8UpJtMmiRplDhzFwAAnF5WrjpJz0u2NqT9mdBr+OZMxnKkAdAWGLDOQxS0yiM6AMgv7nZOz/nzlwzfJWmXpAckqeL9db+V9uKbPBeuN9MNkiZIuoiyAAAkTpC0w6Tng9taeW5trqHn+syaqxpIA6C9MGCdh55H69cf79vzpEvdqQEgX1ikKy7kf59ZVHJI0iOtD1VUeKr48LbRwaKJcr9BZhPlPkoSEz8AAIXlgKSVklaba60Vp2rnLRx2jCwAOvR4hgTnZ+Zt25ZJKqcEgLzh2lC5dOTY9vwp7p62s1cuG64z9+tddr3JJ0q6hPgAAOSN4zJtlFutPNRGSj8/b+nQrZI5aQB0Js7AOn+rxIAFIJ+YBrT3T9H6p7FLWx+SpOm37BxiUXaiuf22TGWSxknqwRcEAIDOfmugV921wUwbgmtDOp17YegNo3fNnm2BOgBi+JyF8zH9lu3TosgfpwSAPOJHilLdznQj945SUeGp9IEtIy2VLpN5WXCVRdI4LssGAKDdZCXfYbJamercfEtaRc/OXTx0H2kA5AsGrPN0b/nLfZrSTQfFvV4A5NOTfggD5z81+pW4/brKy5el+6f6j3bTBEkTzFQmV6mkLnzVAAA4ay7XKxZpq7s2m2xzLqUNvQ/Ub5lTO6GFPADy+liGBOdv5m3bNkq6lhIA8uZdbfCbqp4atToffq33la0tOta39zVmocxCGBvMxpo0RnzyIQAAkvSKpK0mbQ7S1ijY5q5NvvWHq0bWkwZAIeIeWBfApFXOgAUgr564bEC+/FJb/6R4feujldv0W14cbJYbZ6axLis187FyXckXFwBQoMccr7q0VeZ1FmxLSEWbUynbyqcAAkgaBqwL4KZVcv0RJQDkkQH5/cs3r35KL0l6SdKP3/qnn7x168XNUTTWFMaaW6lLYyWN4nUOAJAnjpq0w089tpm0wyzakbKGnXMXl54gDwDwxv7C4plWZfkwWQB5xCJ/XyH+vh5YOuqg3vHph/eVrS2q79VtuKVTo+Ve4rLRkpdINlLcvxAA0PFaJL0m+S4z2yL3Oim1S9Ku+UuGvSwZRxYA8G7HMiS4MDNv2/aG8v6MBgBJ4dLPq5aMvDPJDSrK63pGqfQoM7/WzEvM7RqXruG5HADQBuolveSyXSZ/yU27LISXghft2htef6WmZmqWRABwfjgD68KtklRBBgD5wKQhSW+QqSk5Lun51scvzfrAxr6hscs1irzE3EbLNNLcR7h0Nd85AIBWLmm3pF3u9lIk3xXMX0rJdzUXFb2UWThsP4kAoH0wYF3owaBplTsDFoA8ec6SBktuXKbwm+Y/NuawpBWtj1+6544NPZqzRSOilI0wt9EujdCvHl0oBwAFJSvpDbm/YmavSHolyF51C69EFr3apbn4F/fXDGokEwB0yrEMLsSM27dNMP/1P8UHgDhz0xVVT47cTYkLU1HhqejgiwNTqTDCFUbJNUKuETIbKi5HBIC4qpf8NTN7xaVXTf6qy16V2y88Sr2S6z1kdyZjOTIBQPxwBtYFerNlzwv90/2PS+pJDQD5wNwG69TlD7gArQc4b30i4uNv/7Fp03Z26dviV0gaLAslwW20KQyWbLCkgeIm8gDQHg5LvkfSbpPtCdLuSL7LI+0xabeKWna1nm0LAMjH4xgSXLiZt25bKtMtlACQF9zvrVw66keE6Bz3lr/ctaG4YWiUSw11C0PNbKjch0g2SNJVkoqpBAC/Zr/M9snDHpPtcbd9bnojcu1x0+ueDq/nLgq7M5mSZlIBQOHiDKy2ORpcKRkDFoD8eMaKbAgVOk/rvVM2tz5+zezZHm1b/dIVyuUGRqZBbhroQYPMfKBcA2W6ktduAAXihFz7Zdrj0j6T3pDZXnftsSi8adlor4Vod/MlzfsYpgAA4k1wGx0MmpaZ9FVKAMgHkfNJhHE1e7YFSa+1Pla888fLy5elL+96+ZXKamBkGijXwODR+yzSFXK/Uqc+MbEHJQF0gkZJ+yXtM9M+d98vj/bLfK+Z7w+e2q9IB6Js9s36Hif3P/LIhJMkAwCcCwasNpDrG1anD6dOcNAAIB+0fooe8lBNzdSspF+0Pk7r3vKX+zQUN1yZ8tTVwXWFebjSFV19auQKV0h2tbhvI4Aza5B0SNJhuR+SWevf2yGLwiG5HQ5uh0y5Qx5Fh4tMBxubc/szNSXHSQcAaE/cA6uNzLp92+PumkYJAHnwxH9y+KQRF7We7YMEqrjtpd7pXOOVnk5fbvL+7n55JA1w2aWSrpR0qU59kmJvagF567CkQ9Y6Rrn5IfnpxyhP5Q6bR4e6tnQ51HqZMwAAscMZWG3Egy2ROQMWgPg/X0ndty5/cZBOfXoeEiizZMhRSUcl1b3bv1dxw2vdino09DcL/d39MkkDJLssyC41+aWS+r3jAeDCHZWpXq7jJtW7/KhkR2V23F31Zqo3+VG5jrmp3lz1wex4ZOFIZOFok3Qos2j0YcmclACAQsKA1UYiC08GTmgDkCdSUe4aMWDhPWTWXNUgaVfr411VVHgqfWhzP4Won9JRPw92ickuVaR+8taBy9RP7r8lqe/bHkC+OyKpWdJxSSdO/b0fluy4SfXh1D8/ZrIjbqq3EI6bqV5KHQsWjpjZ8WxW9YrSx1vHZQAAcBosLm3GbeZt23dLupwWAGL/5G/+t/OfHPX/UQKdbdYHNvZVU9e+inJ9FVJ9ZaGv3Pu6ot+SeV+595Wsj0m93dRTrp46dQ+vvq1/LaIi3kXroKTDrX89Iem4zJrlfkSuJjc7aa56RWo2+VFJjXJvkEfHZKFZSh0zCw1u3hhZONqUU3NRl1z94dDt5MKFw5pIDABAx+AMrLY7HHRp21JJd9MCQOy5lRABcTD/sTGHW8eF8zJt2s4ulzRne2Yt1VumXu7eU+49LdJFLuvtwbtHkboFqYdcxZHU2+UpyfpIKpK8p2RdJXXTrwax3pIiSRfxXumCHJX01r32GiQ1uiy0jkQu+ZFTb6HsiFzupmNyy5mF4+7WYmYnTd6ktwYlU7NkJ4IsG7nVexTe+v+SQuqwJKU9dzTbtSXsPnGwvvVDDwAAQIHgTVmbHhD6k2LAApAPT1fSNVRAIWg9A6ZJ0sH2/Hkqyut6FmVzRZJk6W49PO3FkmTK9fCciiUpRKF7ZNblN/57C9bNTo1k7/bfZE+L/NfOJgvuRyOP2vXDFsy8wc1/46bdbtZiWZ3+U+VSqV8OjlEq2xBOZBslqasXZ3+4amQ935UAAKBd3reQoA3f3N6y/Yq0hdcpASAPNO3JvdmTMxQAAAAA5IOIBG0n89SINyTfSgkAeaBL/+IBQ8kAAAAAIB8wYLU5W0gDAPnAc7lSKgAAAADIBwxYbc2ih4gAIC+erqQyKgAAAADIBwxYbWzEpOGrJe2hBID4s+toAAAAACAfMGC1sdmzLbj0CCUA5IGy2bOd1wEAAAAAsceBSzswGZcRAsgHF21fvWM4GQAAAADEHQNWexwRHjm+VLIjlAAQezmfQAQAAAAAcceA1Q7m1E5okTmfRggg/owbuQMAAACIPwas9jomDFxGCCAPeOAMLAAAAACxx4DVTlpCbqGkBkoAiDOTjS8vX5amBAAAAIA4Y8BqJ5makuOSllACQJy51H1A0aXXUAIAAABAnDFgta+fkABA7OWiSUQAAAAAEGcMWO0Ztzj9kEknKQEg1swYsAAAAADEGgNWO5q3cNgxN/2cEgDizOWTqQAAAAAgzhiw2lkI0VwqAIi5/rNu2zGYDAAAAADiigGrnYWLhy+WtIcSAOLMPXczFQAAAADEFQNWO8tkLCepkhIA4sxlDFgAAAAAYosBqwNYFLiMEEC8n6fkDFgAAAAAYnzMgg4x89atGySNoQSAuMrmQv9MTcmblAAAAAAQN5yB1UHcxVlYAGItlbIpVAAAAAAQRwxYHXZkaPMl5QgBIMYvCbfTAAAAAEAsj1ZI0DGqnhy5W9ISSgCIK5PuoAIAAACAmB6voKPMuGXLR8z0U0oAiK1UalTl4hHbCAEAAAAgTjgDqwPlLh71sKRXKAEgrjyX5SwsAAAAALHDgNWBMhnLmfR/KQEgvoz7YAEAAACIHQasDtaS8x9IaqYEgDgyaeq0aTu7UAIAAABAnDBgdbBMTcmbFvSQXOLBgwePGD569G7J3sCzNQAAAAAGrKQz/TsRAMT2KcoD98ECAAAAECsMWJ1g/lOjl0vaRAkAseT2ASIAAAAAiBMGrE47QNT3iQAgpsbcc8e2QWQAAAAAEBcMWJ0k6/6ApGOUABBHLS25D1EBAAAAQFwwYHWSTE3JcZkepASAODKLfpcKAAAAAOKCAatTDxDT/yQpRwkA8eOTP3nr1ovpAAAAACAOGLA60fwlw3dJ9hAlAMRQOqvwP8gAAAAAIA4YsDpZsNw/UgFAHLlzGSEAAACAeDASdL6ZU7csk6mcEgBi5niX0O2S+2sGNZICAAAAQGfiDKwYCOachQUgjno2RCenkgEAAABAZ2PAioHqp0oWSlpPCQDxe5GIKqgAAAAAoLNxCWFMzLy17hPuNpcSAOLEpSPHuhRdvnDhsCZqAAAAAOgsnIEVE3ty+6okvUIJAHFiUp9ejc18GiEAAACATsWAFRM1NVOzbvoXSgCIGzObTgUAAAAAnYkBK0aKUy3/JekgJQDEzIfvuWNDDzIAAAAA6CwMWDEyd3HpCZd9ixIAYqZHS67og2QAAAAA0FkYsGKmON38PUl7KQEgTtw1gwoAAAAAOgsDVszMXVx6ws3+kRIA4sSkafeWr+9DCQAAAACdIU2C+Akne/5Hqtuxv5A0gBoAYqJLoxV/VNIPSQEAAACgo3EGVgxl1lzV4NL/oQSAWDF9jggAAAAAOgMDVkyFizVH0i8oASBGxs2YWjeRDAAAAAA6GgNWTGUyJc1yzsICEDOmPyECAAAAgI7GgBVjvY41/LekXZQAECN33XPHhkvJAAAAAKAjMWDF2JzaCS2S/hclAMRIl+Zs+tNkAAAAANCRGLBi7s2w70FJ2ygBIC7M9Pl7y1/uSgkAAAAAHYUBK+ZqaqZmTf7XlAAQG67+TdbAWVgAAAAAOoyRID/MuKVusaTbKQEgFlyv5fppaCZT0kwMAAAAAO2NM7Dy5VjR/a8kBUoAiAXTValDdg8hAAAAAHTMIQjyxsypdT906VOUABATu970fSNqaqZmSQEAAACgPXEGVh7xdOp/SjpBCQAxMbi/Lp1BBgAAAADtjQErj1Q9OXK3TN+iBIC4cNPXp03b2YUSAAAAANoTA1aeyTX0+qak1ygBICYG92lo/hwZAAAAALQnBqw8k1lzVYObvkYJAHHhpq/OvHXTZZQAAAAA0F4YsPLQqMmjfySplhIAYqJXCPZVMgAAAABoL3wKYZ6aWV43yU3L+RoCiImcu42trhm9mRQAAAAA2hpnYOWpypqSlZI9QAkAMZEy82+TAQAAAEB7YMDKY0VFLX8t6TAlAMTErdNvqZtGBgAAAABtjQErj81dXLrPzf6WEgDiwlz/fs8dG3pQAgAAAEBbYsDKc6Mmj/pPSc9SAkBMDGzJFv0dGQAAAAC0JW4AXgBmTd1aFhSelZSiBoAYyCqn365aXrKeFAAAAADaAmdgFYD5y0bVuvw/KQEgJtJK6Qf3la0tIgUAAACAtsCAVShHi127/I2kPZQAEBNlx3p34x59AAAAANoElxAWkOlTN3/SpB9RAkBMZCWbVLWshPv0AQAAALggDFgFxW1med1SN02lBYCY2JZrPDY+s+bGBlIAAAAAOF9cQlhQzLMh9/uSjtMCQEyMTHXt9W0yAAAAALgQDFgFJrO89GUz8RH2AOLkvunldXeTAQAAAMD5YsAqQCMml3xXrhWUABAXZv79iqkbRlACAAAAwHkdU5CgMFVM3TAipdQLkrpSA0A8+Lqu3vOm+2sGNdICAAAAwLngDKwClVlWut3lX6UEgPiw8Y3RyR/QAQAAAMC5YsAqYKOmXPNPklZTAkBsuH9ixtTNXyAEAAAAgHPBJYQFbmb5xpFu0XpxKSGA+Lz05Mz1wcqakidoAQAAAOBscAZWgausGbPN3f+eEgDiw1Nu/uCsyVuG0QIAAADA2WDASoDe9U3/KNN6SgCIkYtDKjxecfO6S0gBAAAA4L1wCWFCVNxaNzoVtFbybtQAEBuu54uKc1PnLi49QQwAAAAAZ8IZWAmRWVqyxU1/TQkAsWK6riWbqqqoWJAiBgAAAIAzYcBKkOqnRv+byx+nBIBYcX0wdaDke5JzVjAAAACA0+JgIWEqbl53SSpVvFHS5dQAECcufbu65povUAIAAADAO3EGVsJkVozfb7JPnTpWBID4MOnPZ0zZ/HeUAAAAAPBODFgJVFlT8oTMvk8JALFj+sbM8s1/TggAAAAAb8eAlVBdvfsXJd9MCQBx49I/z5iymUsJAQAAAPwSA1ZC3V8zqFEh+qRczdQAEDMm0z9Pn1r3VVIAAAAAkBiwEq1qecl6l/9PSgCII3P/+ozyTbMpAQAAAIABK+FGTb3mnyQtpASAeLKvTZ+y+ZuS86m5AAAAQJKPDEiAivfX/VaqyWslDaQGgFi+WLkeuOh44x/MqZ3QQg0AAAAggccEJIAkzZhaN1HBl8tUTA0A8XzB8iVRt64fm7dw2DFqAAAAAMnCJYSQJFUtK3nWI/sbSgCIK5fdlm1oXllxywtXUAMAAABIFs7AwtsPD21G+eafSPoILQDE2Mu5VPTBzNKSLaQAAAAAkoEzsPA25l2V/bSkl2gBIMYGpXLh2RlTNjG2AwAAAAnBGVj4DTNv3TTGc3pGUjdqAIgxl+wfR5aXfGX2bAvkAAAAAAoXAxZOa0b5pj+S9B+UABD7FzKzTLoo96m5i0tPUAMAAAAo0Pf9JMCZzCzf9KBLd1MCQOy5NuaicFdmWel2YgAAAACFh3tg4YyyTfV/KKmWEgBizzQm5dHameWbPkEMAAAAoBDf8gPvYtYtW94XcrnnZLqUGgDy5JVtblFR+GMuKQQAAAAK6W0+8B5mlG8ql7RYUhE1AOTFi5tri6LorsplJXXUAAAAAArgPT4JcDZmlG/+E8n/lRIA8kij5LNzl2z7ViZzV44cAAAAQP5iwMJZmzFl83/K/D5KAMgzazyVu7d66dgdpAAAAADyEzdxx1nrdbzxc+ZaTgkAeeYGy6VemFG+8UuzZzuvewAAAEAe4gwsnJOK8rrLUwrPS7qSGgDy8GVvqUf+meqnrn2JFgAAAEAevZMnAc7VjMl142RhpUzdqQEgDzVK+mZX9fyH+2sGNZIDAAAAiD8GLJyXmeWbPuHSA3wPAcjjF8DtiqLPVj5V8hQ1AAAAgNi/fwfOz8wpm7/u5l+lBIA892hK4Y/n1ZS+TgoAAAAgnhiwcAHcZk7ZfL+bPkkLAHnuuKR/yjXVfzOz5sYGcgAAAADxwoCFC1JRUVec2h8WSSqnBoC853rVzb9SXXPtfMmcIADQCe8vJ28YlI6im9x0o7smmXSlSytDOvpcZknJqxQCgGRiwMIFmzVpY9+QttWSRlIDQIFYGyL/iwVPjVlOCgBoP+Xly9IDokvHe/AbXeEmyW6S1P/0/7Y/W1Uz5nqqAUAyMWChTcy6bePg0GJrZLqUGgAK6GXy5276WvWyazbQAgAu3L3l6/s0W+rG4LpBspvluu5cPtnaUrq8cum1eykJAAl8Z04CtJUZU+smKoRlkrpRA0ABcUkPWdDXK1dcu5EcAHB2Zsujupu3jIyi3ERTdL3kN0oaLSk63//PnEXDMjUlL1IXAJKHAQttauaUzR9y+UOSUtQAUGBc0mMewteqV5SuIwcA/LqK29b2tmzxdZFsklxlkm6QdHFb/hwMWACQXAxYaHMzJ2/6Czd9ixIACpS766em6H9XLS9ZTw4ASXRv+ctdm7x+nCyaKPeJLk2UNKi9f14GLABILgYstIvpUzZ916Q/pQSAAn8RXRZM/zyq5prHZ8sCRQAUooqKBalo/4hRUUiVuTRB5hMljZVU1NG/FgYsAEj0e2+gPbjNmLLph5LupQWABHjR3f/15ImWHzxSO+EkOQDkq4qKBan0geEjQ87KzFQmV5nMxkrqEYdfX85SDFgAkFAMWGg395WtLTrWs/jnkqZRA0BCXlYPSP4fyma/X7Vq/G56AIizX51ZpbJgVmZSmU6dWdU9rr9mBiwASPA7bRKgPX2obG33Hj2Ll+jUTTwBICmyLj0qac6op69dxOWFADrbveUvd23U8WtMYawHK5VpvGI+Vp0OAxYAJBcDFtpdxW1re6daip+WVEoNAAn0hkwPRlH6P+Y/NfoVcgBob7Mmbezr6VASQutlgLLRkq6R1CXff28MWACQXAxY6BAVt7xwRSoXrZQ0kBoAEior12Nm/n+zB9KLMnUlzSQBcCHKy5el+1vfEZ6LSt1UaqfOqCqVdFmh/p4ZsAAguRiw0GGmT3phuKWiFZIupQaAhDvoph970PzRy69dySWGAN7NbHm0Y9KmgZ7ykmBWEknXuGu0pFGSuiapBQMWACQXAxY61MybN40JkT9tUh9qAIAk6Q3Jf2LmmcqasSvJASTbjJvWDQhF6dEWvMTMRsu9RGalknpShwELAJKMAQsd7q4pm6dGCo8rYX9iCABnYatJGYv08Pxl166TzEkCFJ6KigWp6OCogamsj3DZKI/CKAW7xkyjXbqIQmfGgAUAycWAhU4xffKmO8z852LEAoAz2Sf5IpMyR7p3X7xw4bAmkgD5Zdq0nV36NJ4YGkI02lyDZV7SekP1UcqzT/+LCwYsAEguBix0mhmTN3xYZj+WVEQNAHjXF+t6SU8E189DS2phZk3JIaoA8VBeviw9IHvx1SoKw3I5G2nSSJkNlzRS0gAKtS0GLABI9HtioPNMn7zpo2ZeLSlNDQA4K0HSepmWmPuqE9kuNQ+vGllPFqD9VJTUFRf1zV2ZTWtw5Bos02BzDXZpsKTRkrpRqWMwYAFAcjFgodPNnLJhpsvmSkpRAwDOWaOk1ZIvVaSluX7b12Yyd+XIApybe8vX92lW8UC37BDP2VCZhph8qMuGSLpSUkSlzseABQDJxYCFWJg5ecPvudkPeXMIABfsqFwrXb7GLbXazZ7P1JQcJwuSbtakjX2VTr3PlRso+UApGujBB8o0UNJASb2pFH8MWACQXAxYiI0ZUzb+oaT/5PsSANr2eE/SZpetMumZyLPPzF8+bidZUEgqKhakdHD45VGwqxSiAVEUrnbXIMkGSnqfGKgK5wmNAQsAEouhALEyY/LGP5Hpe3xvAkC72i/XczLb4PIXlAsbRq0sfXG2LJAGcVNRUlecuqR5gMmulNtV8miAIl3l7ldIukLS1ZIuE/fTTAQGLABILkYCxM6MKRu/4NI/UwIAOtQJuTbLtEHyFzxKbWxsTm/kBvFoLx8qW9u9e+8u/d3tcsv5ZYp8gLsuNfMBcl1msv5+aqC6jPeseEtgwAKAxOLNAGJp+uQNfyazf+F7FAA6lUv+qmQ7JdspCzvktj1Yaud+7ftFTc3ULInwdhW3re1d1Jy6tMVS/UzeLzK7OLj1l8LlZrpMbgMkXSppgKSLKIZzxYAFAMnFOIDYuqt80x+Z+7+JG7sDQBy1SHpZ8h0ybbdgLwfzVyP313MeXs+sGL+fRPlt1qSNfSX1bSlS33Sw33L3S9zsYsn7SdZP8kskXSKpn0sXm9RPUhHl0J4YsAAguRiwEGvTp2z8lKQfSEpRAwDySqNkr0n+huSvyaJX5eENWfRayOX2FRUV720JfpBPSGwfFTes7pbuUtzDssW9WtKpXmbew0Lo5fI+JvU1qU9w9bVIfRWiPm7e16Q+kvq2PvpQEXHEgAUAycWAhdibMXnjLDf9SNycFQAKUaOkg5IOyHVAZvvlfsAiP+iyA+5+UGYNko57LhyLUnYylbWTLbnUEeloQ2bNjQ35+Ju+e+LOXl7UkGqJvE+UjqLg3kfZkLJU1MtcRZJ6ylVsph6SdZV7Nzd1d1OXKHhvmfUMUg87dRleb0k9JO8hWS9JvcQf/KBAMWABQHIxYCEvzCjf8HF3my8uTQAA/KbDkhokNZh05O0/4Kd+7O3/4IRMzef+U3iqdRw6zZsp63XqxyWXuknq2vpDaf36fZ768N4LuDAMWACQXJzRgrxQVVP647smbzxppp+87cAAAADpV5e9yd/r3zzv+ejM/0N/758VAAAAF4ibYyNvLFg+5nGPwp069afsAAAAAAAgIRiwkFcWLBu7KHL/oKQT1AAAAAAAIBm4DwPy0vQp66+TR4/p1Md3AwAAIAFClOYeWACQUJyBhbxU/fS456VoiqTXqAEAAAAAQGFjwELeql5+7VbL5a6XtIkaAAAAAAAULgYs5LWqVeN3h5Z0uUlrqAEAAAAAQGFiwELey6wpOVTUVbdLWkQNAAAAAAAKDwMWCsLcxaUnwsH0hyVVUwMAAAAAgMLCgIWCkakraa5ePmampG9TAwAAAACAwsGAhQJjXr289AsmfZ0WAAAAAAAUBgYsFKSq5aWzze1TklqoAQAAAABAfmPAQsGqWjHmfnNNk3SEGgAAAAAA5C8GLBS0qhWlS6OcT5LrFWoAAAAAAJCfGLBQ8CpXja0rUssNZqqlBgAAAAAA+YcBC4nw4IoJe4q6aIqkR6gBAAAAAEB+YcBCYsxdXHoiXLb9I5L/KzUAAAAAAMgfDFhIlEzmrlz18rF/KunPJQWKAAAAAAAQfwxYSKTq5aXfMfOPSzpODQAAAAAA4o0BC4lV9fTYh4LsRkkvUwMAAAAAgPhiwEKiZZaP2dRcVHydpGXUAAAAAAAgnhiwkHgPLR11cG906A65fY8aAAAAAADEDwMWIKmmZmq2esWYz5vZZyS1UAQAAAAAgPhgwALepurpMXPMdKuk/dQAAAAAACAeGLCAd6h6unSF0tENMtVRAwAAAACAzseABZxG9VPXvpRubLjRpYepAQAAAABA5zISAO/GbfrkjZ+X/FuS0vQAAADoPCHKDcvUlL1ICQBIHs7AAt6VefXy0u8ED7dJ2ksPAAAAAAA6HgMWcBYyK8Y/nY5sgsnWUAMAAAAAgI7FgAWcpXk1pa+/GR2a7NI3qQEAAAAAQMdhwALOQU3N1OyC5WO/LPknJJ2kCAAAAAAA7Y8BCzgP1cvHzVMIN8r9JWoAAAAAANC++FQ14DxVrxy/4c7y9RO65Ox+yX+XIgAAAAAAtA/OwAIuwM9qxh2pXlF6p9x+T1IDRQAAAAAAaHsMWEAbqF5Z+oBkkyTtpAYAAAAAAG2LAQtoI9UrStc1hK5lJj1IDQAAAAAA2g4DFtCGHl41sr5qxdh7Wi8pPEERAAAAAAAuHAMW0A6qV5Y+EKWiCZI2UAMAAAAAgAvDgAW0k8qaMdu6pXpf76bvUgMAAAAAgPPHgAW0o/trBjUuWD72z0xWIekQRQAAAAAAOHcMWEAHqFpR+uOoODXapceoAQAAAADAuWHAAjpI5dJr9y5YUfohc31G3OAdAAAAAICzxoAFdCjzqpVj58hy10laRw8AAAAAAN4bAxbQCaqXl23dmzo80cy/LilHEQAAAAAAzowBC+gkNTVTs1XLx81WsEmSXqQIAAAAAACnx4AFdLLqVaXPpJsby0z2I2oAAAAAAPCbGLCAGJj37PXHqlaU3uvmH3DpdYoAAAAAAPArDFhAjCxYPu5x75K9RqY5kpwiAAAAAAAwYAGxk1ky4Wj18rGfidx+R9JrFAEAAAAAJB0DFhBTlStLn0g3N3I2FgAAAAAg8YwEQPxNn/zCHXL/gaSrqQEAAJIqpMKwTE0Zn94MAAnEGVhAHqhePnbxyZO5UW7+TUmBIgAAAACAJGHAAvLEI7UTTi5YPv7LkUW3S9pJEQAAAABAUjBgAXmmcnnpU71P5krM7cuSmigCAAAAACh0DFhAHppTO6GlauXYb6ZM10q2lCIAAAAAgELGgAXksfnLx+2sXlF6u9x/T9IBigAAAAAAChEDFpD3zKtXjn8gZItHyDRHktMEAAAAAFBIGLCAApFZU3Koevm4zwT5VLltowgAAAAAoFAwYAEFJrNi/NMhd3K8ZN+QrJEiAAAAAIB8x4AFFKDMmhsbqleM/Vo6ZcMkm0sRAAAAAEA+Y8ACCti8mtLXq1eM/WRk0a2S6igCAAAAAMhHRgIgGe4rW1t0tFvqs5K+IakXRQAAQL4JuTAss6bsRUoAQPJwBhaQEHNqJ7RUrxz3nSLLjWy9rJBPKwQAAAAA5AUGLCBhHlwxYU/1yrGfVNBEk56jCAAAAAAg7hiwgISqXj3u+Vz/nTe66T7J3qQIAAAAACCuuAcWAFWU1/VMZZu+5LIvSupOEQAAEEMtDd7t4odXjawnBQAkDwMWgF+6u3zDlblc+Ht33SPO0AQAAHHiur961bhPEQIAkokBC8BvmDH5hXEhF75lZrdQAwAAdDrXfx3r1fNzCxcOayIGACQTAxaAM7pr0rrbTPpnya6lBgAA6Ggu7TPTfdUrxv2cGgCQbFwiBOCMFqwcv2Rv+uh4mX+WG70DAIAO5faTVDpXwngFAJA4AwvAWbrnjg09mk6Ez5vpryT1pQgAAGiXAxTTwSD78wUrxj5IDQDAL18fSADgXHz4pm0XdbfGz7r8K5J6UQQAALShTHGIPjd3dek+UgAA3o4BC8B5mVm+tl8uG/2lKfozybtSBAAAXIBdbvbZBSvGLiIFAOB0GLAAXJBZN657Xy6yr0n+SUkpigAAgHPQbKZ/ymUb/1dmzY0N5AAAnAkDFoA2MfOGtSNDKvqGpI/z3AIAAN6Lmx5Om/3l/OXjdlIDAPBeOMgE0KZm3vRCSbDwJUmzxBlZAADgN/h29+iLC1aNe5wWAICzxYAFoF1U3LxudOT6W0nTxZAFAACkA3L/+t6iY9+vqZmaJQcA4FwwYAFoV7MmPT84p/SXJP+0pDRFAABInBMu/at3Df8ns2TCUXIAAM4HAxaADjGjfP3AkPUvmPQZSV0oAgBAwWuR7L9DuuVrmZrffpMcAIALwYAFoENVTN4wKBWyf+Oy35NUTBEAAApO1kzzcpb6emZ56cvkAAC0BQYsAJ1i5sRNl3lR8x+77POS+lIEAIC81yKpSor+vnrl2B3kAAC0JQYsAJ3qwzdtu6ibNXxa8r+QdBVFAADIO82SqkPOv5FZU/YiOQAA7YEBC0AsVJTUFUd9G++W7C8ljaYIAACxd8zN53g29e3MmrFvkAMA0J4YsADEjNtdk9bfarI/k/yD9AAAIHb2mvz7kYq+M3/lmMPkAAB0BAYsALFVceO6G6JIX5D0EUlpigAA0Kk2Sf4v4XDXeZm6kmZyAAA6EgMWgNj7xM1r+2fdPuOyz0q6hCIAAHSYnGQLXf6dBSvHLZXMSQIA6AwMWADyxrRpO7v0qj/+YZd/UdL1FAEAoN28KelHUZT9t6rlv/0aOQAAnY0BC0BeqphUWxbJ/sylGZKKKAIAQJuoNem7vRtC5ZzaCS3kAADEBQMWgLw2Y/JzV3lIf9alP5DUjyIAAJwrr5c0N+Wpf69cNbaOHgCAOGLAAlAQpk3b2aXX0fqPuOkPJU3l+Q0AgPc8EnjOg+5vsu4PPrxqZD1BAADxftkCgAJTcUPtUDP7A5k+JelSigAA8Et7ZMp4sP/OrB73AjkAAPmCAQtAwaooqSu2vo3vl9s9kj4qKUUVAEACNbnbk1GkB/amjzxUUzM1SxIAQL5hwAKQCNNvXDvELfp9SfdK6k8RAEACrDH5j5qKouqf1Yw7Qg4AQD5jwAKQKBUVC1LR7qF3uOseme6U1I0qAIACenP/ikvzXakfZVaVbqcIAKCAXuMAIJnunvhMr2xR8Z3uukfSrTwnAgDy1EFz+0mIcnMzK8tWSeYkAQAUGg7WAEDSRyduuDJdlLtbrk9LGk4RAEDMHTbXox55Zl/62ELuawUAKHQMWADwDhU3rrvB5J+Q2UclXU4RAEBMHJP0M8mq+zTmnpxTO6GFJACApGDAAoAzqKhYkErtGXRz8Ojjkj4mxiwAQMc7LulxN1X1SB9beH/N1EaSAACSiAELAM7CbHlUN6n2RlNUIfePSxpAFQBAOzks2RIzPRrSXX6aqSk5ThIAQNIxYAHAOXrHmPUxSVdQBQBwgQ6Ya6FHyvjhrosydSXNJAEA4FcYsADgAsyWR1tuXnuDQnSnpDslDaUKAOAs34i/4tJP3fynJSvLVs+WBaoAAHDG100AQFv52KTnB0eyD5lHFZLfyPMsAOAdb753udmjrpDJrCxbJZlTBQCAs3oNBQC0hxmTn7sqF1LTFPQhM90hqZgqAJBIW2TKuPRIZmVZLTkAADh3DFgA0AFmTdrYNxtaPqDIf1ey2+XqTRUAKFjBTc+Y+0M585/+ZOV1u0gCAMCFYcACgA52X9naosNd7GaT/Y7MPyhpBFUAIO9l3fV0FPlPzaOfVa0av5skAAC0HQYsAOhkFZM3DFLI3t56qeHtkrpQBQDywkl3PaVIj6RbWn5e+ez1e0kCAED7YMACgBipKK/rabmG2xSiD0g+TdIVVAGAWL15fsXlD7v8ER3p/nSmrqSZKgAAdMhrMAAgrmbe9EJJ1sP7LfI75JosqRtVAKBDBUm1MnvYpEeqV47fQBIAADoeAxYA5Iny8mXpS7IXXW9BH5TZbZLG8zwOAO3ioGRPufmSlNuj3M8KAIDOx4EPAOSpj968tn866A5TdIfLb5N0KVUA4LwEl54318Io8idGrix7frYskAUAgPhgwAKAguA2/ca1JS67RbKpMk2R1JcuAHBGb0i+VBY9kUqHJytrJhwgCQAA8cWABQAFaLY82n7ThlFZy91kbrdJfrukPpQBkGDHJT0jsyUuX5JZOX6dZE4WAADyAwMWACRAefmy9OVNfX47Z2Gqmcol3SCpB2UAFLBGd60y86UefKmufLk2k7krRxYAAPITAxYAJFB5+bL0JU09x8tSk2RhssluktSPMgDy2ElJz8i1XObLuxfVr7m/ZmojWQAAKAwMWAAASdLHJj0/OK3UJAW/yU2TJI2mCoAYa70kUKskW1l/0UUrFi4c1kQWAAAKEwMWAOC0KiatvTpyu1nS9UG63qRSSUWUAdBJXpPsGZOvVuTLw+W7NnBJIAAAycGABQA4K/eVrS063M3GSD4pClbm5pMkG0QZAO3gpGTrZao1qTZEqRWZ5aUvkwUAgORiwAIAnLcZk5+7ykN0vbvd4KaJ5horqTtlAJwDN2m7y551D8+m3J95s8vxTTU1U7OkAQAAb2HAAgC0mYqKBan07uEjQwhlbiqTqUzu4yV1ow6AVntcp86sUqTaVNrXVNZMOEAWAADwbhiwAADtqrx8Wbp/S98R7xi1yiR1pQ5Q8BirAABAm2DAAgB0uIqSuuJUr5MlIbIxClbqFsaYbKyki6kD5KVmSZtN2ujmG6OQ2hil0uvmrxxzmDQAAKAtMGABAGJj1qSNfVvUXKKcyiKzMpePlnStpGLqALFxWKYtctWae21IRXU90sfq7q+Z2kgaAADQXhiwAACxVnHD6m6RF4/yyEabeYm7jZa8RNIgSRGFgHZzyKU6M9si9y2RR3W5tDZmVozfTxoAANDRGLAAAHmJYQtoM/vdVReZtrpbnZu2pnMtdZXPXr+XNAAAIC4YsAAABWXatJ1deh09MkwWDXf3YZINl3y4pOGSLqUQEqrBTTvNbaeZ75TbjhD5znRa27ipOgAAyAcMWACAxLizfH2fLs0tw2Sp4Qo+3E3D3DXYTIPEuIX81yjpZbm/KLMd5r4zWLQzlc7trFp+3euSOYkAAEC+YsACAECnztzqXn/kilRWgz2KBpt8sEyD5RqsU2dvXUQlxMBhSbtk2iXXLpftshB25dLade3KCb+YLQskAgAAhYgBCwCAs/DRm9f2L3ZdHYJfaR5d5dLVivxKuV8p2fskXS7uvYULc0jSG5JeldnrCv6GIr3qbq+FKPzi4gZ7bU7thBYyAQCAJGLAAgCgDdxXtrboQJdoQCoKVymnq2W6PJKucOkySQPkukym/pL6UitxGiW96bLdJt8nabdcbyrSq8r5Gzmz15ub9eojtRNOkgoAAOD0GLAAAOhA95Yv69rY2OdyWcuAoOhSya4w+aVu6idXP5kukdSv9XGxpGKqxdLBUw8/6LKDkXTAZfvMtccV9rp8d+SpfaHFd2dqJxwlFwAAwIVhwAIAIMbunvhMr2wqfYnMLgnuF5upnwf1MbM+stBHrt4y6yNXH0m9Terjp87y6sPr/Hs6YtLRYDoq11FJR02n/irXUY/ssIVw0EwHQ2QHo6wdDEV2oGTFuIPcawoAAKBj8cYWAIACdffEZ3o1SL1SUVFXpdQ75eqeU+gaBesjebdgUVeT95W8m2Stfy+5rIdMxR48ZVHUS5Lk3lNSkaSUSb3e+jnc1F2uLmf4JfTQ6c8gOymp6V1+6c0mnTj1a1G9pKxkQaZTZzKF0KDIGk/9AnRUZjm5H5G8UbIGmY6aW5Pcjyvy48GjJkU6mvZcY5Onj4diO/qzmnFH+A4BAADIH/8PBLUcVFIf4LYAAAAldEVYdGRhdGU6Y3JlYXRlADIwMjItMDctMTZUMTY6MDg6MDArMDA6MDCS+PjBAAAAJXRFWHRkYXRlOm1vZGlmeQAyMDIyLTA3LTE2VDE2OjA4OjAwKzAwOjAw46VAfQAAAABJRU5ErkJggg==;" vertex="1" parent="1">
          <mxGeometry x="180" y="100" width="80" height="80" as="geometry" />
        </mxCell>
        <mxCell id="6DogbckgimtxpG4DwGVf-11" value="LOGIN" style="rounded=0;whiteSpace=wrap;html=1;fillColor=#dae8fc;strokeColor=#6c8ebf;" vertex="1" parent="1">
          <mxGeometry x="260" y="270" width="120" height="40" as="geometry" />
        </mxCell>
      </root>
    </mxGraphModel>
  </diagram>
</mxfile>
